<?xml version="1.0" encoding="UTF-8"?>
<!DOCTYPE svg PUBLIC "-//W3C//DTD SVG 1.1//EN" "http://www.w3.org/Graphics/SVG/1.1/DTD/svg11.dtd">
<svg xmlns="http://www.w3.org/2000/svg" version="1.1" width="100px" height="100px" style="shape-rendering:geometricPrecision; text-rendering:geometricPrecision; image-rendering:optimizeQuality; fill-rule:evenodd; clip-rule:evenodd" xmlns:xlink="http://www.w3.org/1999/xlink">
<g><path style="opacity:0.709" fill="#ffff" d="M 6.5,1.5 C 35.1686,1.33336 63.8353,1.50002 92.5,2C 93.9308,2.46524 95.0975,3.29857 96,4.5C 97.1242,16.2792 97.6242,28.1126 97.5,40C 97.635,51.5678 97.135,63.0678 96,74.5C 95.5,76.3333 94.3333,77.5 92.5,78C 83.5062,78.4998 74.5062,78.6664 65.5,78.5C 65.5,81.5 65.5,84.5 65.5,87.5C 72.3564,87.3574 76.0231,90.6907 76.5,97.5C 58.5,97.5 40.5,97.5 22.5,97.5C 22.9769,90.6907 26.6436,87.3574 33.5,87.5C 33.5,84.5 33.5,81.5 33.5,78.5C 24.4938,78.6664 15.4938,78.4998 6.5,78C 4.66667,77.5 3.5,76.3333 3,74.5C 1.36612,52.5639 1.03279,30.5639 2,8.5C 2.14508,5.20697 3.64508,2.87363 6.5,1.5 Z M 8.5,4.5 C 36.5885,4.01694 64.5885,4.51694 92.5,6C 93.4925,24.4235 93.8259,42.9235 93.5,61.5C 70.1571,61.1669 46.8238,61.5003 23.5,62.5C 23.7093,63.086 24.0426,63.586 24.5,64C 47.4976,64.5 70.4976,64.6666 93.5,64.5C 93.6641,67.1873 93.4974,69.854 93,72.5C 92.0975,73.7014 90.9308,74.5348 89.5,75C 62.5,75.6667 35.5,75.6667 8.5,75C 5.7691,72.1034 4.7691,68.6034 5.5,64.5C 9.83333,64.5 14.1667,64.5 18.5,64.5C 18.5,63.5 18.5,62.5 18.5,61.5C 14.1667,61.5 9.83333,61.5 5.5,61.5C 5.33339,43.1636 5.50006,24.8303 6,6.5C 6.9947,5.93406 7.82803,5.26739 8.5,4.5 Z M 48.5,21.5 C 52.4234,22.7951 56.0901,24.6284 59.5,27C 56.1247,30.3597 52.1247,32.0264 47.5,32C 44.5674,30.7291 41.9007,29.0624 39.5,27C 42.5638,25.1412 45.5638,23.3079 48.5,21.5 Z M 37.5,30.5 C 40.3116,32.4081 43.3116,34.0748 46.5,35.5C 49.7761,47.5608 46.9428,49.8941 38,42.5C 37.5012,38.5138 37.3345,34.5138 37.5,30.5 Z M 60.5,30.5 C 61.6453,34.3112 61.8119,38.3112 61,42.5C 52.0572,49.8941 49.2239,47.5608 52.5,35.5C 55.568,34.3087 58.2346,32.642 60.5,30.5 Z M 36.5,78.5 C 45.1667,78.5 53.8333,78.5 62.5,78.5C 62.4921,81.5448 62.1587,84.5448 61.5,87.5C 53.4723,87.831 45.4723,87.4977 37.5,86.5C 36.6072,83.9159 36.2739,81.2492 36.5,78.5 Z M 31.5,90.5 C 43.5046,90.3335 55.5046,90.5001 67.5,91C 69.6175,91.2602 71.2842,92.2602 72.5,94C 57.1667,94.6667 41.8333,94.6667 26.5,94C 27.9555,92.3743 29.6221,91.2076 31.5,90.5 Z"/></g>
<g><path style="opacity:0.563" fill="#ffff" d="M 8.5,9.5 C 9.5,9.5 10.5,9.5 11.5,9.5C 11.3594,19.6729 11.3594,30.0062 11.5,40.5C 10.1779,40.67 9.01127,40.3366 8,39.5C 7.3467,29.2929 7.51337,19.2929 8.5,9.5 Z"/></g>
<g><path style="opacity:0.757" fill="#ffff" d="M 19.5,9.5 C 20.5,9.5 21.5,9.5 22.5,9.5C 22.5,11.5 22.5,13.5 22.5,15.5C 23.5,15.5 24.5,15.5 25.5,15.5C 25.5,16.5 25.5,17.5 25.5,18.5C 24.5,18.5 23.5,18.5 22.5,18.5C 22.5,19.5 22.5,20.5 22.5,21.5C 24.6648,21.1159 26.3315,21.7826 27.5,23.5C 26.3315,25.2174 24.6648,25.8841 22.5,25.5C 22.5,26.5 22.5,27.5 22.5,28.5C 23.5,28.5 24.5,28.5 25.5,28.5C 24.8011,30.9948 23.8011,33.3281 22.5,35.5C 24.1667,35.5 25.8333,35.5 27.5,35.5C 27.5,36.5 27.5,37.5 27.5,38.5C 25.8333,38.5 24.1667,38.5 22.5,38.5C 22.5,39.8333 22.5,41.1667 22.5,42.5C 23.5,42.5 24.5,42.5 25.5,42.5C 25.5,43.5 25.5,44.5 25.5,45.5C 24.5,45.5 23.5,45.5 22.5,45.5C 22.5,46.8333 22.5,48.1667 22.5,49.5C 24.288,49.2148 25.9547,49.5481 27.5,50.5C 26.3315,52.2174 24.6648,52.8841 22.5,52.5C 22.5,53.5 22.5,54.5 22.5,55.5C 40.1667,55.5 57.8333,55.5 75.5,55.5C 75.5,56.5 75.5,57.5 75.5,58.5C 56.8333,58.5 38.1667,58.5 19.5,58.5C 19.5,42.1667 19.5,25.8333 19.5,9.5 Z"/></g>
<g><path style="opacity:0.643" fill="#ffff" d="M 48.5,11.5 C 49.4959,11.4142 50.3292,11.7476 51,12.5C 51.2362,14.764 51.7362,16.9307 52.5,19C 56.9287,21.1023 61.0954,23.6023 65,26.5C 65.1705,31.8642 65.6705,37.1975 66.5,42.5C 68.9307,43.3601 70.264,45.0268 70.5,47.5C 68.0459,47.6795 65.8792,47.0128 64,45.5C 59.1022,48.0326 54.2689,50.6993 49.5,53.5C 44.7311,50.6993 39.8978,48.0326 35,45.5C 33.1208,47.0128 30.9541,47.6795 28.5,47.5C 28.736,45.0268 30.0693,43.3601 32.5,42.5C 33.3295,37.1975 33.8295,31.8642 34,26.5C 38.0689,23.4368 42.4022,20.7701 47,18.5C 47.2904,16.0796 47.7904,13.7463 48.5,11.5 Z M 48.5,21.5 C 45.5638,23.3079 42.5638,25.1412 39.5,27C 41.9007,29.0624 44.5674,30.7291 47.5,32C 52.1247,32.0264 56.1247,30.3597 59.5,27C 56.0901,24.6284 52.4234,22.7951 48.5,21.5 Z M 37.5,30.5 C 37.3345,34.5138 37.5012,38.5138 38,42.5C 46.9428,49.8941 49.7761,47.5608 46.5,35.5C 43.3116,34.0748 40.3116,32.4081 37.5,30.5 Z M 60.5,30.5 C 58.2346,32.642 55.568,34.3087 52.5,35.5C 49.2239,47.5608 52.0572,49.8941 61,42.5C 61.8119,38.3112 61.6453,34.3112 60.5,30.5 Z"/></g>
<g><path style="opacity:0.646" fill="#ffff" d="M 47.5,65.5 C 52.9836,65.4809 54.6503,67.9809 52.5,73C 45.3691,74.2112 43.7024,71.7112 47.5,65.5 Z"/></g>
</svg>
