<?xml version="1.0" encoding="UTF-8"?>
<!DOCTYPE svg PUBLIC "-//W3C//DTD SVG 1.1//EN" "http://www.w3.org/Graphics/SVG/1.1/DTD/svg11.dtd">
<svg xmlns="http://www.w3.org/2000/svg" version="1.1" width="27px" height="27px" style="shape-rendering:geometricPrecision; text-rendering:geometricPrecision; image-rendering:optimizeQuality; fill-rule:evenodd; clip-rule:evenodd" xmlns:xlink="http://www.w3.org/1999/xlink">
<g><path style="opacity:0.52" fill="#000000" d="M 12.5,4.5 C 17.503,6.01773 21.503,9.01773 24.5,13.5C 21.924,16.787 18.924,19.6203 15.5,22C 14.552,22.4828 13.552,22.6495 12.5,22.5C 12.5,20.8333 12.5,19.1667 12.5,17.5C 10.5,17.5 8.5,17.5 6.5,17.5C 6.5,14.8333 6.5,12.1667 6.5,9.5C 8.5,9.5 10.5,9.5 12.5,9.5C 12.5,7.83333 12.5,6.16667 12.5,4.5 Z M 14.5,7.5 C 16.8138,9.47728 19.1472,11.4773 21.5,13.5C 19.1831,15.316 17.0165,17.316 15,19.5C 14.51,18.2068 14.3433,16.8734 14.5,15.5C 12.5,15.5 10.5,15.5 8.5,15.5C 8.5,14.1667 8.5,12.8333 8.5,11.5C 10.5,11.5 12.5,11.5 14.5,11.5C 14.5,10.1667 14.5,8.83333 14.5,7.5 Z"/></g>
<g><path style="opacity:0.572" fill="#000000" d="M 3.5,9.5 C 4.63406,11.9664 4.80073,14.633 4,17.5C 2.1884,14.9543 2.02173,12.2877 3.5,9.5 Z"/></g>
</svg>
