<?xml version="1.0" encoding="UTF-8"?>
<svg version="1.1" xmlns="http://www.w3.org/2000/svg" width="128" height="128">
<path d="M0 0 C0.495 3.96 0.495 3.96 1 8 C2.94603274 8.59070014 2.94603274 8.59070014 5 9 C6.49743119 7.50256881 6.33202693 6.01175761 6.5625 3.9375 C6.706875 2.638125 6.85125 1.33875 7 0 C13.80707206 -0.43653815 20.61047368 -0.73085035 27.4284668 -0.93383789 C29.7387563 -1.0185469 32.04815616 -1.13398376 34.35522461 -1.2824707 C45.18623402 -1.96131731 55.57886851 -2.25759039 64.75700378 4.27357483 C73.37634336 11.89682769 75.46672766 20.83319664 76.15595055 31.88152885 C76.4009905 37.57914244 76.34890473 43.26501458 76.21630859 48.96484375 C76.11931773 53.16316264 76.17677842 57.3432045 76.2748518 61.54089451 C76.83271009 89.68250411 76.83271009 89.68250411 68.23251343 99.54870605 C61.83112174 105.75169914 56.55610595 109.19871763 47.4375 109.0625 C44.89771815 108.8495763 42.50894303 108.4804359 40 108 C39.505 104.04 39.505 104.04 39 100 C37.05396726 99.40929986 37.05396726 99.40929986 35 99 C33.50256881 100.49743119 33.66797307 101.98824239 33.4375 104.0625 C33.293125 105.361875 33.14875 106.66125 33 108 C26.19292794 108.43653815 19.38952632 108.73085035 12.5715332 108.93383789 C10.2612437 109.0185469 7.95184384 109.13398376 5.64477539 109.2824707 C-5.18623402 109.96131731 -15.57886851 110.25759039 -24.75700378 103.72642517 C-33.37634336 96.10317231 -35.46672766 87.16680336 -36.15595055 76.11847115 C-36.4009905 70.42085756 -36.34890473 64.73498542 -36.21630859 59.03515625 C-36.11931773 54.83683736 -36.17677842 50.6567955 -36.2748518 46.45910549 C-36.83271009 18.31749589 -36.83271009 18.31749589 -28.23251343 8.45129395 C-19.47968987 -0.03025298 -11.94020295 -2.28642184 0 0 Z M-28.53451538 16.03903198 C-33.39316187 25.85578247 -32.1874556 38.53359449 -31.95556641 49.21484375 C-31.87000356 53.20370237 -31.92068149 57.17758021 -32.0072298 61.16592312 C-32.79214672 80.16232508 -32.79214672 80.16232508 -24.8866272 96.70324707 C-19.25919806 102.10066577 -14.94513922 104.70844431 -7.0625 104.9375 C-3.68592248 104.59802939 -3.68592248 104.59802939 -1 104 C-1.11794922 102.92685547 -1.11794922 102.92685547 -1.23828125 101.83203125 C-1.37347303 96.33186038 -0.87318035 92.57656293 2.9609375 88.51953125 C4.73167399 86.78811715 6.53874205 85.14517326 8.42651367 83.54223633 C12.22478651 80.35535891 12.22478651 80.35535891 13.40234375 75.6171875 C13.26957031 74.75351563 13.13679688 73.88984375 13 73 C10.36 72.67 7.72 72.34 5 72 C4.67 70.02 4.34 68.04 4 66 C-2.71644566 65.26808315 -2.71644566 65.26808315 -9.06640625 67.0546875 C-11.45189829 69.18151173 -12.76206504 70.92929269 -13.4609375 74.07421875 C-13.64480132 76.48021133 -13.64480132 76.48021133 -13 80 C-12.505 80.495 -12.01 80.99 -11.5 81.5 C-10 83 -10 83 -9.80078125 84.94921875 C-9.81134665 86.96721107 -9.90087292 88.9844161 -10 91 C-13.3 91 -16.6 91 -20 91 C-20.29296875 85.04296875 -20.29296875 85.04296875 -20 83 C-19.50628906 82.51660156 -19.01257812 82.03320312 -18.50390625 81.53515625 C-16.45072688 79.43931342 -16.73209459 78.13277084 -16.75 75.25 C-16.34348106 70.29192081 -15.10533941 67.59446979 -11.38671875 64.2734375 C-6.62865417 61.73476474 -1.28750672 61.94434203 4 62 C4 60.02 4 58.04 4 56 C1.89646505 55.9189794 -0.20795952 55.86080093 -2.3125 55.8125 C-3.48425781 55.77769531 -4.65601563 55.74289063 -5.86328125 55.70703125 C-9.32806706 56.03064138 -9.85495329 56.46015942 -12 59 C-15.0625 59.3125 -15.0625 59.3125 -18 59 C-20 57 -20 57 -20.25 54 C-20 51 -20 51 -18 49 C-15.0625 48.6875 -15.0625 48.6875 -12 49 C-11.57976563 49.49757812 -11.15953125 49.99515625 -10.7265625 50.5078125 C-8.07354252 52.80069402 -5.73668219 52.28920838 -2.3125 52.1875 C-1.13300781 52.16042969 0.04648437 52.13335937 1.26171875 52.10546875 C2.61716797 52.05326172 2.61716797 52.05326172 4 52 C4 50.02 4 48.04 4 46 C3.14277344 46.00902344 2.28554688 46.01804688 1.40234375 46.02734375 C-9.11588234 45.75460508 -9.11588234 45.75460508 -13.25 42.0625 C-16.36642268 38.3732055 -16.76377509 34.96778949 -16.734375 30.234375 C-17.06568078 27.44750877 -18.04883971 26.91040499 -20 25 C-20.39078556 22.27492202 -20.13616953 19.76878044 -20 17 C-16.7 17 -13.4 17 -10 17 C-9.70703125 23.0546875 -9.70703125 23.0546875 -10 25 C-10.99 25.66 -11.98 26.32 -13 27 C-13.96784944 30.75135441 -13.77557334 34.44570058 -12.0390625 37.92578125 C-9.65205072 40.81641113 -7.91096217 41.88378672 -4.15234375 42.36328125 C-1.40733461 42.37390709 1.26853168 42.26245425 4 42 C4.33 40.02 4.66 38.04 5 36 C8.96 35.505 8.96 35.505 13 35 C12.86464844 33.94425781 12.86464844 33.94425781 12.7265625 32.8671875 C12.57656463 28.44801938 12.64080328 24.78035627 15.42138672 21.13818359 C17.85266812 18.549263 20.39516848 16.14481287 23.07080078 13.81005859 C23.69841309 13.25527832 24.32602539 12.70049805 24.97265625 12.12890625 C25.55281494 11.64494385 26.13297363 11.16098145 26.73071289 10.66235352 C28.50572447 8.68625412 28.50572447 8.68625412 28 4 C22.39 4 16.78 4 11 4 C10.34 6.64 9.68 9.28 9 12 C5.95016004 13.52491998 3.3576631 13.23562548 0 13 C-1.875 11.875 -1.875 11.875 -3 10 C-3.6875 6.8125 -3.6875 6.8125 -4 4 C-14.64468798 1.01240566 -22.69892799 7.73285282 -28.53451538 16.03903198 Z M32 4 C31.98066406 5.17691406 31.96132812 6.35382812 31.94140625 7.56640625 C31.15903206 13.83781839 26.51882456 16.77259903 21.92773438 20.62304688 C18.21030652 23.9084704 18.21030652 23.9084704 16.56689453 28.44580078 C16.56645836 30.67507455 16.68732422 32.79436816 17 35 C18.98 35 20.96 35 23 35 C23.02964844 33.81148437 23.05929688 32.62296875 23.08984375 31.3984375 C23.75193652 26.0900182 26.62987819 23.93080994 30.5625 20.625 C35.26038883 16.47808042 35.26038883 16.47808042 37.859375 10.94140625 C37.81774905 8.49588191 37.62355448 6.36097979 37 4 C35.35 4 33.7 4 32 4 Z M41 4 C41.07863281 4.71542969 41.15726563 5.43085938 41.23828125 6.16796875 C41.37347303 11.66813962 40.87318035 15.42343707 37.0390625 19.48046875 C35.26832601 21.21188285 33.46125795 22.85482674 31.57348633 24.45776367 C27.77521349 27.64464109 27.77521349 27.64464109 26.59765625 32.3828125 C26.73042969 33.24648438 26.86320312 34.11015625 27 35 C29.64 35.33 32.28 35.66 35 36 C35.33 37.98 35.66 39.96 36 42 C42.71644566 42.73191685 42.71644566 42.73191685 49.06640625 40.9453125 C51.45189829 38.81848827 52.76206504 37.07070731 53.4609375 33.92578125 C53.64480132 31.51978867 53.64480132 31.51978867 53 28 C52.505 27.505 52.01 27.01 51.5 26.5 C50 25 50 25 49.80078125 23.05078125 C49.81134665 21.03278893 49.90087292 19.0155839 50 17 C53.3 17 56.6 17 60 17 C60.29296875 22.95703125 60.29296875 22.95703125 60 25 C59.50628906 25.48339844 59.01257813 25.96679688 58.50390625 26.46484375 C56.45072688 28.56068658 56.73209459 29.86722916 56.75 32.75 C56.34348106 37.70807919 55.10533941 40.40553021 51.38671875 43.7265625 C46.62865417 46.26523526 41.28750672 46.05565797 36 46 C36 47.98 36 49.96 36 52 C38.10353495 52.0810206 40.20795952 52.13919907 42.3125 52.1875 C43.48425781 52.22230469 44.65601563 52.25710937 45.86328125 52.29296875 C49.32806706 51.96935862 49.85495329 51.53984058 52 49 C55.0625 48.6875 55.0625 48.6875 58 49 C60 51 60 51 60.25 54 C60 57 60 57 58 59 C55.0625 59.3125 55.0625 59.3125 52 59 C51.57976562 58.50242188 51.15953125 58.00484375 50.7265625 57.4921875 C48.07354252 55.19930598 45.73668219 55.71079162 42.3125 55.8125 C41.13300781 55.83957031 39.95351562 55.86664063 38.73828125 55.89453125 C37.38283203 55.94673828 37.38283203 55.94673828 36 56 C36 57.98 36 59.96 36 62 C37.28583984 61.98646484 37.28583984 61.98646484 38.59765625 61.97265625 C49.11588234 62.24539492 49.11588234 62.24539492 53.25 65.9375 C56.36642268 69.6267945 56.76377509 73.03221051 56.734375 77.765625 C57.06568078 80.55249123 58.04883971 81.08959501 60 83 C60.39078556 85.72507798 60.13616953 88.23121956 60 91 C56.7 91 53.4 91 50 91 C49.734375 85.59895833 49.734375 85.59895833 50 83 C51 82 52 81 53 80 C53.57074442 76.13162114 53.84448616 73.63061352 52.0390625 70.14453125 C49.65168818 67.2396625 47.92756385 66.11960357 44.15234375 65.6328125 C41.40801082 65.62573035 38.73083839 65.73760628 36 66 C35.67 67.98 35.34 69.96 35 72 C32.36 72.33 29.72 72.66 27 73 C27.13535156 74.05574219 27.13535156 74.05574219 27.2734375 75.1328125 C27.42343537 79.55198062 27.35919672 83.21964373 24.57861328 86.86181641 C22.14733188 89.450737 19.60483152 91.85518713 16.92919922 94.18994141 C16.30158691 94.74472168 15.67397461 95.29950195 15.02734375 95.87109375 C14.15710571 96.59703735 14.15710571 96.59703735 13.26928711 97.33764648 C11.49427553 99.31374588 11.49427553 99.31374588 12 104 C17.61 104 23.22 104 29 104 C29.66 101.36 30.32 98.72 31 96 C34.04983996 94.47508002 36.6423369 94.76437452 40 95 C41.875 96.125 41.875 96.125 43 98 C43.6875 101.1875 43.6875 101.1875 44 104 C48.54991565 105.27700335 52.5798378 105.17545506 56.89677429 103.07875061 C63.67965524 98.82526509 68.92101204 93.30614386 70.89639282 85.4225769 C72.30924714 76.62617118 72.14835214 67.66522713 71.95556641 58.78515625 C71.87000356 54.79629763 71.92068149 50.82241979 72.0072298 46.83407688 C72.79214672 27.83767492 72.79214672 27.83767492 64.8866272 11.29675293 C59.25919806 5.89933423 54.94513922 3.29155569 47.0625 3.0625 C43.68592248 3.40197061 43.68592248 3.40197061 41 4 Z M-16 20 C-16 21.32 -16 22.64 -16 24 C-15.01 23.67 -14.02 23.34 -13 23 C-13.33 22.01 -13.66 21.02 -14 20 C-14.66 20 -15.32 20 -16 20 Z M54 20 C54 21.32 54 22.64 54 24 C54.99 23.67 55.98 23.34 57 23 C56.67 22.01 56.34 21.02 56 20 C55.34 20 54.68 20 54 20 Z M8 40 C7.90006468 42.0605531 7.86919094 44.1245259 7.8671875 46.1875 C7.86589844 47.44304688 7.86460938 48.69859375 7.86328125 49.9921875 C7.86537598 50.64928711 7.8674707 51.30638672 7.86962891 51.98339844 C7.87497766 53.99161335 7.86968309 55.99960459 7.86328125 58.0078125 C7.86457031 59.26335937 7.86585937 60.51890625 7.8671875 61.8125 C7.86831543 62.97394531 7.86944336 64.13539062 7.87060547 65.33203125 C7.69662526 67.92063284 7.69662526 67.92063284 9 69 C10.62257544 69.0991657 12.24939831 69.13079777 13.875 69.1328125 C14.85984375 69.13410156 15.8446875 69.13539062 16.859375 69.13671875 C18.41398437 69.13091797 18.41398437 69.13091797 20 69.125 C21.03640625 69.12886719 22.0728125 69.13273437 23.140625 69.13671875 C24.12546875 69.13542969 25.1103125 69.13414063 26.125 69.1328125 C27.03507812 69.13168457 27.94515625 69.13055664 28.8828125 69.12939453 C30.9852848 69.23560009 30.9852848 69.23560009 32 68 C32.09993532 65.9394469 32.13080906 63.8754741 32.1328125 61.8125 C32.13410156 60.55695313 32.13539062 59.30140625 32.13671875 58.0078125 C32.13462402 57.35071289 32.1325293 56.69361328 32.13037109 56.01660156 C32.12502234 54.00838665 32.13031691 52.00039541 32.13671875 49.9921875 C32.13542969 48.73664062 32.13414063 47.48109375 32.1328125 46.1875 C32.13168457 45.02605469 32.13055664 43.86460938 32.12939453 42.66796875 C32.30337474 40.07936716 32.30337474 40.07936716 31 39 C29.37742456 38.9008343 27.75060169 38.86920223 26.125 38.8671875 C25.14015625 38.86589844 24.1553125 38.86460938 23.140625 38.86328125 C21.58601563 38.86908203 21.58601563 38.86908203 20 38.875 C18.96359375 38.87113281 17.9271875 38.86726563 16.859375 38.86328125 C15.87453125 38.86457031 14.8896875 38.86585937 13.875 38.8671875 C12.96492188 38.86831543 12.05484375 38.86944336 11.1171875 38.87060547 C9.0147152 38.76439991 9.0147152 38.76439991 8 40 Z M-16 52 C-16 53.32 -16 54.64 -16 56 C-15.01 55.67 -14.02 55.34 -13 55 C-13.33 54.01 -13.66 53.02 -14 52 C-14.66 52 -15.32 52 -16 52 Z M54 52 C54 53.32 54 54.64 54 56 C54.99 55.67 55.98 55.34 57 55 C56.67 54.01 56.34 53.02 56 52 C55.34 52 54.68 52 54 52 Z M17 73 C16.97035156 74.18851562 16.94070312 75.37703125 16.91015625 76.6015625 C16.24806348 81.9099818 13.37012181 84.06919006 9.4375 87.375 C4.73961117 91.52191958 4.73961117 91.52191958 2.140625 97.05859375 C2.18225095 99.50411809 2.37644552 101.63902021 3 104 C4.65 104 6.3 104 8 104 C8.02900391 102.23462891 8.02900391 102.23462891 8.05859375 100.43359375 C8.84096794 94.16218161 13.48117544 91.22740097 18.07226562 87.37695312 C21.78969348 84.0915296 21.78969348 84.0915296 23.43310547 79.55419922 C23.43354164 77.32492545 23.31267578 75.20563184 23 73 C21.02 73 19.04 73 17 73 Z M-16 84 C-16 85.32 -16 86.64 -16 88 C-15.01 87.67 -14.02 87.34 -13 87 C-13.33 86.01 -13.66 85.02 -14 84 C-14.66 84 -15.32 84 -16 84 Z M54 84 C54 85.32 54 86.64 54 88 C54.99 87.67 55.98 87.34 57 87 C56.67 86.01 56.34 85.02 56 84 C55.34 84 54.68 84 54 84 Z " fill="#009C02" transform="translate(44,10)"/>
</svg>
