<?xml version="1.0" encoding="UTF-8"?>
<svg version="1.1" xmlns="http://www.w3.org/2000/svg" width="128" height="128">
<path d="M0 0 C1.60042645 0.00306143 3.20085558 0.00493463 4.80128479 0.00567627 C8.13903148 0.01025868 11.4765341 0.02461256 14.81420898 0.046875 C19.10063077 0.07531678 23.38686219 0.08610478 27.67336941 0.0905571 C30.97007663 0.094702 34.26674515 0.10450903 37.56343269 0.11643219 C39.14514926 0.12214047 40.72686955 0.12689733 42.30859184 0.13069916 C44.50844847 0.13753705 46.70815111 0.15115317 48.90795898 0.16699219 C50.160681 0.17382019 51.41340302 0.18064819 52.7040863 0.18768311 C55.50390625 0.328125 55.50390625 0.328125 56.50390625 1.328125 C59.00390625 1.49479167 59.00390625 1.49479167 61.50390625 1.328125 C61.83390625 0.998125 62.16390625 0.668125 62.50390625 0.328125 C65.84950861 0.04651582 69.21038096 0.0962046 72.56640625 0.078125 C73.49646484 0.0575 74.42652344 0.036875 75.38476562 0.015625 C82.03389889 -0.02175593 87.89853157 0.27938328 93.15135193 4.72122192 C98.93397729 11.30877313 98.34247905 18.71363872 98.23046875 26.9921875 C98.22942972 28.51337685 98.23047219 30.0345689 98.23348999 31.55575562 C98.23331131 34.73159286 98.21260997 37.90640658 98.17626953 41.08203125 C98.13081659 45.14191692 98.12982789 49.20031514 98.14330482 53.26038551 C98.15000256 56.39699408 98.1366921 59.53326656 98.11704636 62.66981125 C98.10937896 64.16643895 98.10703069 65.66310413 98.11021805 67.15974808 C98.11096409 69.2538649 98.08560112 71.34610778 98.05322266 73.43994141 C98.03940048 75.22242783 98.03940048 75.22242783 98.02529907 77.04092407 C97.21565828 82.14542848 94.7149934 85.23519269 90.94140625 88.640625 C86.70879443 91.57089472 82.94531479 91.46197361 77.9921875 91.42578125 C77.26396286 91.4243663 76.53573822 91.42295135 75.78544617 91.42149353 C73.46239086 91.41590159 71.13943237 91.40335062 68.81640625 91.390625 C67.24023577 91.38560896 65.66406377 91.38104623 64.08789062 91.37695312 C60.22652527 91.3659348 56.36523217 91.34867574 52.50390625 91.328125 C52.99890625 96.278125 52.99890625 96.278125 53.50390625 101.328125 C54.24640625 101.410625 54.98890625 101.493125 55.75390625 101.578125 C59.17900835 102.51224375 60.4474575 103.4338638 62.50390625 106.328125 C63.23771791 112.30344854 63.23771791 112.30344854 61.29321289 115.01870728 C58.90449121 116.76677797 57.38409922 116.70856367 54.4375 116.71630859 C53.40633057 116.72576508 52.37516113 116.73522156 51.31274414 116.7449646 C50.20020264 116.73889191 49.08766113 116.73281921 47.94140625 116.7265625 C46.79857178 116.72943268 45.6557373 116.73230286 44.47827148 116.73526001 C42.0607046 116.73730257 39.64312126 116.73175938 37.22558594 116.71923828 C33.5185054 116.70318821 29.81251525 116.71908141 26.10546875 116.73828125 C23.75911217 116.73629885 21.41275627 116.73245525 19.06640625 116.7265625 C17.39759399 116.73567154 17.39759399 116.73567154 15.69506836 116.7449646 C14.14831421 116.73077988 14.14831421 116.73077988 12.5703125 116.71630859 C11.20821655 116.71272842 11.20821655 116.71272842 9.81860352 116.70907593 C7.50390625 116.328125 7.50390625 116.328125 5.71459961 115.01870728 C3.66063858 112.15060687 4.08705089 109.72251866 4.50390625 106.328125 C6.560355 103.4338638 7.82880415 102.51224375 11.25390625 101.578125 C11.99640625 101.495625 12.73890625 101.413125 13.50390625 101.328125 C13.83390625 98.028125 14.16390625 94.728125 14.50390625 91.328125 C13.69123291 91.33336182 12.87855957 91.33859863 12.04125977 91.34399414 C8.38298303 91.36469494 4.72471858 91.37776303 1.06640625 91.390625 C-0.21298828 91.39900391 -1.49238281 91.40738281 -2.81054688 91.41601562 C-4.02548828 91.41923828 -5.24042969 91.42246094 -6.4921875 91.42578125 C-7.61810303 91.43101807 -8.74401855 91.43625488 -9.90405273 91.44165039 C-12.49609375 91.328125 -12.49609375 91.328125 -13.49609375 90.328125 C-14.69234375 90.43125 -15.88859375 90.534375 -17.12109375 90.640625 C-21.66952512 90.71425069 -23.79050744 89.03373472 -27.05078125 86.03125 C-30.41113465 82.07148221 -30.7594185 78.81510337 -30.81835938 73.66699219 C-30.83325409 72.67589699 -30.83325409 72.67589699 -30.84844971 71.66477966 C-30.87759204 69.48481023 -30.89128074 67.30513202 -30.90234375 65.125 C-30.91385694 63.60288491 -30.92537228 62.08076984 -30.93688965 60.55865479 C-30.95788224 57.36770279 -30.96958471 54.17685114 -30.9765625 50.98583984 C-30.98751389 46.91243066 -31.03553597 42.84036478 -31.09250641 38.76737595 C-31.12990609 35.62219474 -31.14017805 32.47733203 -31.14323425 29.33194733 C-31.14925782 27.83129805 -31.16521535 26.3306524 -31.19160461 24.83022308 C-31.43031231 10.21186028 -31.43031231 10.21186028 -26.27577209 4.75415039 C-18.73117506 -1.29120436 -9.1441439 -0.07649149 0 0 Z " fill="#050505" transform="translate(30.49609375,5.671875)"/>
<path d="M0 0 C0.88733826 0.00404846 1.77467651 0.00809692 2.68890381 0.01226807 C4.08903717 0.00701111 4.08903717 0.00701111 5.51745605 0.00164795 C8.61374268 -0.00717989 11.70980222 -0.00131648 14.80609131 0.00543213 C16.95078577 0.00408578 19.09547993 0.00214551 21.24017334 -0.00036621 C25.73938904 -0.0033189 30.23852544 0.00098485 34.73773193 0.01031494 C40.51519075 0.02170952 46.29246377 0.01515083 52.06991577 0.00317001 C56.49987192 -0.00404466 60.92978376 -0.00176246 65.35974121 0.0034256 C67.49047874 0.00476318 69.62122024 0.00311059 71.75195312 -0.00153351 C74.72583732 -0.00659227 77.69941736 0.00110237 80.67327881 0.01226807 C81.56061707 0.0082196 82.44795532 0.00417114 83.36218262 0 C89.45256371 0.04252953 89.45256371 0.04252953 91.68109131 2.27105713 C91.92160034 4.44772339 91.92160034 4.44772339 91.90814209 7.17974854 C91.90790039 8.21494629 91.90765869 9.25014404 91.90740967 10.31671143 C91.89717773 11.40766113 91.8869458 12.49861084 91.87640381 13.62261963 C91.87438965 14.62317383 91.87237549 15.62372803 91.87030029 16.65460205 C91.85981505 20.4018002 91.8318926 24.14893314 91.80609131 27.89605713 C91.76484131 36.26980713 91.72359131 44.64355713 91.68109131 53.27105713 C58.68109131 53.27105713 25.68109131 53.27105713 -8.31890869 53.27105713 C-8.36015869 44.89730713 -8.40140869 36.52355713 -8.44390869 27.89605713 C-8.4621167 25.25170654 -8.48032471 22.60735596 -8.49908447 19.88287354 C-8.50492352 17.7961243 -8.51002046 15.7093728 -8.51422119 13.62261963 C-8.52445313 12.53166992 -8.53468506 11.44072021 -8.54522705 10.31671143 C-8.54546875 9.28151367 -8.54571045 8.24631592 -8.54595947 7.17974854 C-8.5504007 6.27818024 -8.55484192 5.37661194 -8.55941772 4.44772339 C-7.99325784 -0.67616365 -4.26219701 0.0297632 0 0 Z " fill="#3B3F46" transform="translate(22.31890869140625,20.72894287109375)"/>
<path d="M0 0 C0.84827362 0.00444122 1.69654724 0.00888245 2.57052612 0.01345825 C4.03196045 0.0138208 4.03196045 0.0138208 5.5229187 0.01419067 C6.54909302 0.02442261 7.57526733 0.03465454 8.63253784 0.04519653 C9.57411743 0.04721069 10.51569702 0.04922485 11.48580933 0.05130005 C15.01133071 0.0617834 18.5367828 0.08970587 22.06222534 0.11550903 C29.94097534 0.15675903 37.81972534 0.19800903 45.93722534 0.24050903 C45.93722534 17.73050903 45.93722534 35.22050903 45.93722534 53.24050903 C29.43722534 53.24050903 12.93722534 53.24050903 -4.06277466 53.24050903 C-4.10861009 46.01378919 -4.14845851 38.78757076 -4.17263794 31.56082153 C-4.18271449 29.10084324 -4.19637597 26.64087698 -4.21365356 24.18093872 C-4.23782927 20.65128618 -4.24924106 17.12179156 -4.25808716 13.59207153 C-4.26840973 12.48683136 -4.2787323 11.38159119 -4.28936768 10.24285889 C-4.28951874 9.2219516 -4.2896698 8.20104431 -4.28982544 7.14920044 C-4.29426666 6.24763214 -4.29870789 5.34606384 -4.30328369 4.41717529 C-3.97058887 1.40620486 -3.03371522 0.35371576 0 0 Z " fill="#ECCE74" transform="translate(18.062774658203125,20.759490966796875)"/>
<path d="M0 0 C39.6 0 79.2 0 120 0 C120 6.21029673 119.74553082 7.44462468 116 12 C111.42443537 15.68824219 107.13566356 15.40860698 101.52807617 15.34057617 C100.58124969 15.34101425 99.63442322 15.34145233 98.65890503 15.34190369 C95.53671479 15.33981762 92.41506492 15.31649481 89.29296875 15.29296875 C87.12535394 15.28737216 84.95773532 15.28310236 82.79011536 15.28010559 C77.09035734 15.26866186 71.39082936 15.2391985 65.69116211 15.20599365 C59.87291577 15.17528275 54.05463219 15.16159806 48.23632812 15.14648438 C36.82411779 15.11432854 25.41207804 15.06313769 14 15 C14 15.66 14 16.32 14 17 C11.8125 17.3125 11.8125 17.3125 9 17 C5.22188759 13.86693117 2.36641635 10.29460744 0 6 C0 4.02 0 2.04 0 0 Z " fill="#C5C5C5" transform="translate(4,78)"/>
<path d="M0 0 C1.98 0 3.96 0 6 0 C6.495 0.99 6.495 0.99 7 2 C7.96039185 2.02187378 7.96039185 2.02187378 8.94018555 2.04418945 C11.85654831 2.11891382 14.77179687 2.21549293 17.6875 2.3125 C18.69490234 2.33505859 19.70230469 2.35761719 20.74023438 2.38085938 C30.33946713 2.72934637 30.33946713 2.72934637 34 6 C36.6022163 9.66920898 37.37146422 12.13768836 37.34057617 16.61645508 C37.34034958 17.71721878 37.34012299 18.81798248 37.33988953 19.95210266 C37.32440567 21.1293541 37.30892181 22.30660553 37.29296875 23.51953125 C37.28872391 24.73323898 37.28447906 25.94694672 37.28010559 27.19743347 C37.26332908 31.0693491 37.22567733 34.94074199 37.1875 38.8125 C37.1724519 41.4394456 37.15876371 44.06639937 37.14648438 46.69335938 C37.11342881 53.12908424 37.06323883 59.56450477 37 66 C35.02 66 33.04 66 31 66 C30.99857498 65.35742249 30.99714996 64.71484497 30.99568176 64.05279541 C30.97600638 57.36907174 30.92177894 50.686264 30.84741211 44.00292969 C30.82420461 41.50820485 30.80982999 39.01338165 30.80444336 36.51855469 C30.79517443 32.93361923 30.75422532 29.35023683 30.70703125 25.765625 C30.7109639 24.64883362 30.71489655 23.53204224 30.71894836 22.38140869 C30.69930527 21.34063171 30.67966217 20.29985474 30.65942383 19.22753906 C30.64943108 17.85520111 30.64943108 17.85520111 30.63923645 16.45513916 C30.14755298 13.8359775 30.14755298 13.8359775 28.04681396 11.70562744 C23.82304571 9.34113288 20.35773327 9.43870518 15.59155273 9.48242188 C14.65115143 9.4754126 13.71075012 9.46840332 12.74185181 9.46118164 C9.63879724 9.44360122 6.5366573 9.45522389 3.43359375 9.46875 C1.27555669 9.46605533 -0.88247918 9.46217313 -3.04051208 9.45715332 C-7.56057306 9.45125839 -12.08031762 9.45982216 -16.6003418 9.47851562 C-22.39676591 9.50131856 -28.19244975 9.48817317 -33.98884678 9.46422577 C-38.44379771 9.4497795 -42.89857278 9.45436822 -47.35352898 9.46473694 C-49.4909874 9.46740674 -51.62846174 9.46412559 -53.76590157 9.45481873 C-56.7513479 9.44467114 -59.7355907 9.46012899 -62.72094727 9.48242188 C-63.60573257 9.47432495 -64.49051788 9.46622803 -65.40211487 9.45788574 C-69.1946684 9.51040899 -71.34267785 9.55961311 -74.54582214 11.70562744 C-76.27718885 14.43734299 -76.51462163 16.00602783 -76.54589844 19.22753906 C-76.56561707 20.26831604 -76.58533569 21.30909302 -76.60565186 22.38140869 C-76.60688049 23.49820007 -76.60810913 24.61499146 -76.609375 25.765625 C-76.62591125 26.91415955 -76.64244751 28.06269409 -76.65948486 29.24603271 C-76.70806615 32.91407566 -76.72935923 36.5817037 -76.75 40.25 C-76.77815106 42.73700016 -76.80807725 45.2239809 -76.83984375 47.7109375 C-76.91382797 53.80721609 -76.96541113 59.90337751 -77 66 C-78.98 66 -80.96 66 -83 66 C-83.07606971 58.25877171 -83.12860834 50.51763984 -83.16479492 42.77612305 C-83.17988057 40.14262286 -83.20035166 37.50914779 -83.22631836 34.87573242 C-83.26271019 31.09026896 -83.2797289 27.30513773 -83.29296875 23.51953125 C-83.30845261 22.34227982 -83.32393646 21.16502838 -83.33988953 19.95210266 C-83.34011612 18.85133896 -83.34034271 17.75057526 -83.34057617 16.61645508 C-83.34723801 15.65048904 -83.35389984 14.68452301 -83.36076355 13.68928528 C-82.90946937 10.32514608 -82.12463628 8.6599023 -80 6 C-75.00601289 2.45640702 -71.72733573 1.50275677 -65.50415039 1.54589844 C-64.79111755 1.54531433 -64.07808472 1.54473022 -63.34344482 1.54412842 C-61.01100185 1.54689207 -58.67987303 1.57789918 -56.34765625 1.609375 C-54.72098997 1.61684359 -53.09431464 1.6225336 -51.46763611 1.62652588 C-47.20460788 1.64173378 -42.94213244 1.68097291 -38.67932129 1.7253418 C-34.32209753 1.76639974 -29.96478369 1.78455927 -25.60742188 1.8046875 C-17.07136206 1.84747266 -8.53574997 1.91566419 0 2 C0 1.34 0 0.68 0 0 Z " fill="#4D555E" transform="translate(87,8)"/>
<path d="M0 0 C8.25 0 16.5 0 25 0 C25 17.49 25 34.98 25 53 C17.74 53 10.48 53 3 53 C-1.32112699 38.23614945 -0.95988398 27.00572735 5 13 C1.60085025 14.13304992 0.94745549 15.12518475 -1 18 C-1.02698422 15.56242587 -1.04683099 13.12515085 -1.0625 10.6875 C-1.07087891 9.99720703 -1.07925781 9.30691406 -1.08789062 8.59570312 C-1.10307906 5.4516975 -1.00193327 3.00579981 0 0 Z " fill="#F4EC85" transform="translate(39,21)"/>
<path d="M0 0 C13.2 0 26.4 0 40 0 C42.31 4.95 44.62 9.9 47 15 C36.11 15 25.22 15 14 15 C14 15.66 14 16.32 14 17 C11.8125 17.3125 11.8125 17.3125 9 17 C5.22188759 13.86693117 2.36641635 10.29460744 0 6 C0 4.02 0 2.04 0 0 Z " fill="#99A2B0" transform="translate(4,78)"/>
<path d="M0 0 C1.0549189 -0.00087616 1.0549189 -0.00087616 2.13114929 -0.00177002 C4.43113421 0.0009931 6.72978556 0.03199744 9.02954102 0.06347656 C10.63378695 0.07094534 12.23804206 0.07663526 13.84230042 0.08062744 C18.04614858 0.09583383 22.24943598 0.13507156 26.45306396 0.17944336 C30.74996354 0.22050463 35.04695454 0.23866153 39.34399414 0.25878906 C47.76156798 0.30157154 56.17868769 0.36976115 64.59594727 0.45410156 C64.59594727 0.78410156 64.59594727 1.11410156 64.59594727 1.45410156 C49.74594727 1.45410156 34.89594727 1.45410156 19.59594727 1.45410156 C19.26594727 3.43410156 18.93594727 5.41410156 18.59594727 7.45410156 C17.49138184 7.46812012 17.49138184 7.46812012 16.36450195 7.48242188 C13.02430508 7.53614311 9.68550607 7.61978778 6.34594727 7.70410156 C5.18708008 7.71828125 4.02821289 7.73246094 2.83422852 7.74707031 C1.16166992 7.79541016 1.16166992 7.79541016 -0.54467773 7.84472656 C-1.57109375 7.86567383 -2.59750977 7.88662109 -3.6550293 7.90820312 C-7.14481359 8.60120114 -8.17963254 9.71571432 -10.40405273 12.45410156 C-11.01454153 14.94312639 -11.01454153 14.94312639 -10.94995117 17.68164062 C-10.9696698 18.7224176 -10.98938843 19.76319458 -11.00970459 20.83551025 C-11.01093323 21.95230164 -11.01216187 23.06909302 -11.01342773 24.21972656 C-11.02996399 25.36826111 -11.04650024 26.51679565 -11.0635376 27.70013428 C-11.11211888 31.36817722 -11.13341197 35.03580526 -11.15405273 38.70410156 C-11.18220379 41.19110172 -11.21212999 43.67808246 -11.24389648 46.16503906 C-11.3178807 52.26131765 -11.36946387 58.35747907 -11.40405273 64.45410156 C-13.38405273 64.45410156 -15.36405273 64.45410156 -17.40405273 64.45410156 C-17.48012244 56.71287328 -17.53266107 48.97174141 -17.56884766 41.23022461 C-17.58393331 38.59672443 -17.60440439 35.96324936 -17.63037109 33.32983398 C-17.66676292 29.54437053 -17.68378164 25.75923929 -17.69702148 21.97363281 C-17.71250534 20.79638138 -17.7279892 19.61912994 -17.74394226 18.40620422 C-17.74416885 17.30544052 -17.74439545 16.20467682 -17.74462891 15.07055664 C-17.75129074 14.10459061 -17.75795258 13.13862457 -17.76481628 12.14338684 C-17.3135221 8.77924764 -16.52868901 7.11400386 -14.40405273 4.45410156 C-9.4381972 0.93673902 -6.18398154 -0.04347263 0 0 Z " fill="#34383F" transform="translate(21.404052734375,9.5458984375)"/>
<path d="M0 0 C0.87100342 -0.00945648 1.74200684 -0.01891296 2.6394043 -0.02865601 C3.57695557 -0.02258331 4.51450684 -0.01651062 5.48046875 -0.01025391 C6.44573486 -0.01312408 7.41100098 -0.01599426 8.40551758 -0.01895142 C10.44645779 -0.02099302 12.48741752 -0.01545648 14.52832031 -0.00292969 C17.65604315 0.01312239 20.78247371 -0.00277536 23.91015625 -0.02197266 C25.89192994 -0.01999024 27.87370283 -0.0161466 29.85546875 -0.01025391 C30.79302002 -0.0163266 31.73057129 -0.02239929 32.6965332 -0.02865601 C33.56753662 -0.01919952 34.43854004 -0.00974304 35.3359375 0 C36.10188232 0.00238678 36.86782715 0.00477356 37.65698242 0.00723267 C39.66796875 0.38818359 39.66796875 0.38818359 41.5012207 1.66244507 C41.88624756 2.23193878 42.27127441 2.8014325 42.66796875 3.38818359 C42.33796875 4.70818359 42.00796875 6.02818359 41.66796875 7.38818359 C25.82796875 7.38818359 9.98796875 7.38818359 -6.33203125 7.38818359 C-6.66203125 6.06818359 -6.99203125 4.74818359 -7.33203125 3.38818359 C-5.2984987 0.38038301 -3.51298644 0.0109469 0 0 Z " fill="#80858E" transform="translate(46.33203125,110.61181640625)"/>
<path d="M0 0 C9.9 0 19.8 0 30 0 C30.33 3.63 30.66 7.26 31 11 C20.44 11 9.88 11 -1 11 C-0.67 7.37 -0.34 3.74 0 0 Z " fill="#49515A" transform="translate(49,97)"/>
<path d="M0 0 C4.45827926 -0.0578304 8.9164628 -0.09353855 13.375 -0.125 C15.28152344 -0.15013672 15.28152344 -0.15013672 17.2265625 -0.17578125 C18.43828125 -0.18222656 19.65 -0.18867187 20.8984375 -0.1953125 C22.01911621 -0.20578613 23.13979492 -0.21625977 24.29443359 -0.22705078 C27 0 27 0 29 2 C29 2.99 29 3.98 29 5 C19.43 5 9.86 5 0 5 C0 3.35 0 1.7 0 0 Z " fill="#C5C5C5" transform="translate(60,112)"/>
<path d="M0 0 C0.99 0 1.98 0 3 0 C1.87728728 6.17491995 0.11842263 12.05885535 -1.875 18 C-2.11943848 18.76626709 -2.36387695 19.53253418 -2.61572266 20.32202148 C-3.3671875 22.5 -3.3671875 22.5 -5 26 C-7.10205078 26.71875 -7.10205078 26.71875 -9 27 C-8.41209187 20.97394166 -6.64787535 15.76640756 -4.5 10.125 C-4.17902344 9.25875 -3.85804687 8.3925 -3.52734375 7.5 C-1.14773261 1.14773261 -1.14773261 1.14773261 0 0 Z " fill="#110F09" transform="translate(41,34)"/>
<path d="M0 0 C6.57692308 0.57692308 6.57692308 0.57692308 8 2 C8.45691383 7.25450902 8.45691383 7.25450902 6.8125 9.9375 C5 11 5 11 2.4375 10.8125 C0 10 0 10 -2 8 C-2.25 5 -2.25 5 -2 2 C-1.34 1.34 -0.68 0.68 0 0 Z " fill="#FCFCFC" transform="translate(61,80)"/>
<path d="M0 0 C3.62613199 0.56959153 5.25517741 1.92374534 7.75 4.5625 C8.36359375 5.20316406 8.9771875 5.84382813 9.609375 6.50390625 C10.06828125 6.99761719 10.5271875 7.49132813 11 8 C9.59155282 11.21524305 7.89655214 13.32183868 5.375 15.75 C4.42753906 16.67039062 4.42753906 16.67039062 3.4609375 17.609375 C2.97882812 18.06828125 2.49671875 18.5271875 2 19 C1.01 18.67 0.02 18.34 -1 18 C0.44253657 14.63408134 2.33264727 12.48952921 5 10 C3.99686938 7.76224708 3.15523165 6.1492612 1.375 4.4375 C0 3 0 3 0 0 Z " fill="#0D0D07" transform="translate(45,38)"/>
<path d="M0 0 C-0.54226981 3.79588866 -2.20127563 5.47211993 -5 8 C-3.99814595 10.23490519 -3.1888327 11.82569289 -1.375 13.5 C0 15 0 15 0 19 C-3.21524305 17.59155282 -5.32183868 15.89655214 -7.75 13.375 C-8.36359375 12.74335937 -8.9771875 12.11171875 -9.609375 11.4609375 C-10.06828125 10.97882812 -10.5271875 10.49671875 -11 10 C-9.69235781 7.12193585 -8.28858403 4.99307704 -6.0625 2.75 C-5.30646484 1.96882813 -5.30646484 1.96882813 -4.53515625 1.171875 C-3 0 -3 0 0 0 Z " fill="#0B0905" transform="translate(31,38)"/>
<path d="M0 0 C5.61 0 11.22 0 17 0 C17.33 1.32 17.66 2.64 18 4 C12.06 4 6.12 4 0 4 C0 2.68 0 1.36 0 0 Z " fill="#99CFED" transform="translate(74,52)"/>
<path d="M0 0 C5.94 0 11.88 0 18 0 C18 0.99 18 1.98 18 3 C12.06 3 6.12 3 0 3 C0 2.01 0 1.02 0 0 Z " fill="#FBFBFB" transform="translate(74,39)"/>
<path d="M0 0 C5.61 0 11.22 0 17 0 C17 0.99 17 1.98 17 3 C11.39 3 5.78 3 0 3 C0 2.01 0 1.02 0 0 Z " fill="#87D17D" transform="translate(87,46)"/>
<path d="M0 0 C3.63 0 7.26 0 11 0 C11 1.32 11 2.64 11 4 C7.37 4 3.74 4 0 4 C0 2.68 0 1.36 0 0 Z " fill="#9AD1EF" transform="translate(88,59)"/>
<path d="M0 0 C3.3 0 6.6 0 10 0 C10 1.32 10 2.64 10 4 C6.7 4 3.4 4 0 4 C0 2.68 0 1.36 0 0 Z " fill="#81C679" transform="translate(88,32)"/>
<path d="M0 0 C3.3 0 6.6 0 10 0 C10 1.32 10 2.64 10 4 C6.7 4 3.4 4 0 4 C0 2.68 0 1.36 0 0 Z " fill="#E6E7E8" transform="translate(96,52)"/>
<path d="M0 0 C2.97 0 5.94 0 9 0 C9 1.32 9 2.64 9 4 C6.03 4 3.06 4 0 4 C0 2.68 0 1.36 0 0 Z " fill="#EDEDEE" transform="translate(74,59)"/>
<path d="M0 0 C2.97 0 5.94 0 9 0 C9 1.32 9 2.64 9 4 C6.03 4 3.06 4 0 4 C0 2.68 0 1.36 0 0 Z " fill="#98CDEA" transform="translate(74,32)"/>
<path d="M0 0 C3.63 0 7.26 0 11 0 C11 0.99 11 1.98 11 3 C7.37 3 3.74 3 0 3 C0 2.01 0 1.02 0 0 Z " fill="#E4879C" transform="translate(95,39)"/>
<path d="M0 0 C2.97 0 5.94 0 9 0 C9 0.99 9 1.98 9 3 C6.03 3 3.06 3 0 3 C0 2.01 0 1.02 0 0 Z " fill="#E7889D" transform="translate(74,46)"/>
</svg>
