<?xml version="1.0" encoding="UTF-8"?>
<svg version="1.1" xmlns="http://www.w3.org/2000/svg" width="128" height="128">
<path d="M0 0 C1.0094165 -0.00845947 2.01883301 -0.01691895 3.05883789 -0.02563477 C4.16026123 -0.01956207 5.26168457 -0.01348938 6.39648438 -0.00723267 C7.56107178 -0.01248962 8.72565918 -0.01774658 9.92553711 -0.02316284 C13.78057206 -0.03638195 17.63519512 -0.02761759 21.49023438 -0.01748657 C24.16536983 -0.01950675 26.8404927 -0.02241297 29.515625 -0.02618408 C35.12439447 -0.03164051 40.7330454 -0.02445305 46.34179688 -0.01016235 C52.82433828 0.00616406 59.30659662 0.00087546 65.78913116 -0.01564157 C71.35698111 -0.02925972 76.92474589 -0.03117453 82.49260712 -0.02332556 C85.81714812 -0.0186508 89.14152704 -0.01919817 92.46606445 -0.02793503 C96.17223363 -0.03553687 99.87785602 -0.02396216 103.58398438 -0.00723267 C104.68540771 -0.01330536 105.78683105 -0.01937805 106.92163086 -0.02563477 C107.93104736 -0.01717529 108.94046387 -0.00871582 109.98046875 0 C111.29452698 0.00169662 111.29452698 0.00169662 112.63513184 0.00342751 C115.53679928 0.4685654 116.90749625 1.32418693 118.99023438 3.38095093 C119.38752403 6.17870615 119.52709118 8.58566289 119.49194336 11.38485718 C119.50004784 12.60723587 119.50004784 12.60723587 119.50831604 13.85430908 C119.52083488 16.55105789 119.50429188 19.24674563 119.48632812 21.94345093 C119.48648304 23.81527767 119.48797077 25.68710474 119.49073792 27.55892944 C119.49212332 31.48314583 119.47954027 35.40699736 119.45678711 39.33114624 C119.42840204 44.36537579 119.4311379 49.39899889 119.44387722 54.43327332 C119.45082683 58.29885045 119.44305334 62.164287 119.43062019 66.02984619 C119.4260987 67.88622499 119.42577497 69.74261884 119.42968559 71.59899902 C119.4325908 74.19199643 119.41612445 76.78415337 119.39428711 79.37704468 C119.40103958 80.53198929 119.40103958 80.53198929 119.40792847 81.71026611 C119.33579415 86.85618999 119.33579415 86.85618999 117.68707275 89.35990906 C114.72159163 91.1443338 111.39664381 90.74318801 108.04101562 90.67391968 C106.88209053 90.66755241 106.88209053 90.66755241 105.69975281 90.66105652 C103.23372445 90.64427276 100.76851542 90.6066224 98.30273438 90.56845093 C96.63022014 90.55340364 94.95769309 90.53971531 93.28515625 90.5274353 C89.1865336 90.49437039 85.08852287 90.44259121 80.99023438 90.38095093 C80.99023438 95.33095093 80.99023438 100.28095093 80.99023438 105.38095093 C82.13363281 105.36934937 83.27703125 105.3577478 84.45507812 105.34579468 C85.94596192 105.33641805 87.43684746 105.32731771 88.92773438 105.31845093 C89.68248047 105.31007202 90.43722656 105.30169312 91.21484375 105.2930603 C93.14017751 105.28442652 95.06559018 105.3287076 96.99023438 105.38095093 C97.99023438 106.38095093 97.99023438 106.38095093 98.12304688 108.84970093 C98.12046875 109.85001343 98.11789063 110.85032593 98.11523438 111.88095093 C98.11910156 113.38141968 98.11910156 113.38141968 98.12304688 114.91220093 C97.99023438 117.38095093 97.99023438 117.38095093 96.99023438 118.38095093 C94.3787315 118.4813655 91.79365073 118.51712149 89.18164062 118.51034546 C87.95488113 118.51297394 87.95488113 118.51297394 86.70333862 118.51565552 C83.98644927 118.52007477 81.26962445 118.51713579 78.55273438 118.51376343 C76.67325834 118.51443645 74.79378238 118.51540645 72.91430664 118.5166626 C68.96988092 118.51813967 65.02547779 118.51598471 61.08105469 118.51132202 C56.01310935 118.50562473 50.94521696 118.50890368 45.87727356 118.51489449 C41.9946655 118.51849985 38.1120701 118.51736163 34.22946167 118.51476669 C32.36025995 118.51409735 30.49105709 118.51492609 28.62185669 118.51724625 C26.01414934 118.51977236 23.40652896 118.51593277 20.79882812 118.51034546 C20.01853241 118.51236969 19.23823669 118.51439392 18.43429565 118.51647949 C13.10449691 118.49521346 13.10449691 118.49521346 11.99023438 117.38095093 C11.89172267 115.5497921 11.86050808 113.71475159 11.86523438 111.88095093 C11.86265625 110.88063843 11.86007813 109.88032593 11.85742188 108.84970093 C11.99023438 106.38095093 11.99023438 106.38095093 12.99023438 105.38095093 C15.68678291 105.30775471 18.35714895 105.28852556 21.05273438 105.31845093 C21.81134766 105.32296265 22.56996094 105.32747437 23.3515625 105.3321228 C25.23115309 105.34394413 27.11070336 105.36188015 28.99023438 105.38095093 C28.99023438 100.43095093 28.99023438 95.48095093 28.99023438 90.38095093 C27.94569092 90.39666138 26.90114746 90.41237183 25.82495117 90.42855835 C21.95051786 90.4828479 18.07611818 90.51729723 14.20141602 90.54574585 C12.52427517 90.56083476 10.8471738 90.5813084 9.17016602 90.60726929 C6.75982934 90.64364904 4.35001419 90.66067579 1.93945312 90.67391968 C1.18935471 90.68940353 0.43925629 90.70488739 -0.33357239 90.72084045 C-5.44216735 90.72249295 -5.44216735 90.72249295 -7.706604 89.35990906 C-9.75518129 86.24897592 -9.43488901 82.98097357 -9.41381836 79.37704468 C-9.42068161 78.56212555 -9.42754486 77.74720642 -9.43461609 76.90759277 C-9.4529335 74.21103547 -9.44904001 71.51505716 -9.44335938 68.81845093 C-9.4479185 66.94662282 -9.45322326 65.07479639 -9.45924377 63.20297241 C-9.46818434 59.27883099 -9.46574064 55.35489299 -9.45581055 51.43075562 C-9.44431391 46.39644901 -9.46453809 41.36284307 -9.49372768 36.32862854 C-9.51205274 32.46305872 -9.51180473 28.597658 -9.50609016 24.73205566 C-9.50593653 22.87566138 -9.51201578 21.01925594 -9.52438164 19.16290283 C-9.53922212 16.56977047 -9.52866703 13.97794789 -9.51147461 11.38485718 C-9.52114258 10.6148941 -9.53081055 9.84493103 -9.54077148 9.05163574 C-9.46814714 3.8336159 -9.46814714 3.8336159 -7.29155064 1.68416405 C-4.62283798 0.15996202 -3.05796406 0.00394822 0 0 Z " fill="#363344" transform="translate(9.009765625,4.619049072265625)"/>
<path d="M0 0 C2.97 0 5.94 0 9 0 C9 0.99 9 1.98 9 3 C23.52 3 38.04 3 53 3 C53 2.01 53 1.02 53 0 C55.97 0 58.94 0 62 0 C62 3.3 62 6.6 62 10 C61.01 10 60.02 10 59 10 C59 24.19 59 38.38 59 53 C59.99 53 60.98 53 62 53 C62 55.97 62 58.94 62 62 C59.03 62 56.06 62 53 62 C53 61.01 53 60.02 53 59 C38.48 59 23.96 59 9 59 C9 59.99 9 60.98 9 62 C6.03 62 3.06 62 0 62 C0 59.03 0 56.06 0 53 C0.99 53 1.98 53 3 53 C2.505 49.04 2.505 49.04 2 45 C1.45698242 45.60585938 0.91396484 46.21171875 0.35449219 46.8359375 C-2.14771136 49.58910264 -4.69726237 52.29365925 -7.25 55 C-8.10335938 55.95390625 -8.95671875 56.9078125 -9.8359375 57.890625 C-16.34506674 64.69120779 -16.34506674 64.69120779 -21.34960938 65.625 C-24.30393108 65.625 -27.08372341 65.45626231 -30 65 C-30.46431694 62.21409835 -30.68373353 60.68968705 -30 58 C-27.61969454 54.99851833 -24.90085684 52.49292384 -22 50 C-22.48726562 49.5771875 -22.97453125 49.154375 -23.4765625 48.71875 C-25 47 -25 47 -25.375 43.5 C-25 40 -25 40 -23.92578125 38.32421875 C-21.00341279 36.31471995 -18.31376947 36.47310869 -14.8125 36.3125 C-12.90404297 36.21388672 -12.90404297 36.21388672 -10.95703125 36.11328125 C-9.49330078 36.05720703 -9.49330078 36.05720703 -8 36 C-9.05960938 35.95101562 -10.11921875 35.90203125 -11.2109375 35.8515625 C-12.59898497 35.77653291 -13.98700451 35.70098515 -15.375 35.625 C-16.07367188 35.5940625 -16.77234375 35.563125 -17.4921875 35.53125 C-22.7734375 35.2265625 -22.7734375 35.2265625 -25 33 C-25.25878906 31.15234375 -25.25878906 31.15234375 -25.265625 28.9375 C-25.26820312 28.14085938 -25.27078125 27.34421875 -25.2734375 26.5234375 C-25.26570313 25.69070312 -25.25796875 24.85796875 -25.25 24 C-25.25773437 23.16726562 -25.26546875 22.33453125 -25.2734375 21.4765625 C-25.26957031 20.28160156 -25.26957031 20.28160156 -25.265625 19.0625 C-25.26336914 18.33160156 -25.26111328 17.60070312 -25.25878906 16.84765625 C-25 15 -25 15 -23 13 C-20.14434641 12.77447659 -17.4174649 12.67571237 -14.5625 12.6875 C-13.39750977 12.66333008 -13.39750977 12.66333008 -12.20898438 12.63867188 C-6.47822742 12.63373582 -6.47822742 12.63373582 -4.28564453 14.31298828 C-2.20523166 17.0428882 -2.46671866 19.82553331 -2.3125 23.1875 C-2.21388672 25.09595703 -2.21388672 25.09595703 -2.11328125 27.04296875 C-2.07589844 28.01878906 -2.03851562 28.99460937 -2 30 C0.2861923 28.29907293 1.79691624 26.9218318 2.42382812 24.07617188 C2.61741254 21.79595119 2.70826216 19.53799241 2.75 17.25 C2.79447266 16.06083984 2.79447266 16.06083984 2.83984375 14.84765625 C2.91027787 12.89897906 2.95743482 10.94948505 3 9 C2.01 9 1.02 9 0 9 C0 6.03 0 3.06 0 0 Z " fill="#BEBEBF" transform="translate(33,11)"/>
<path d="M0 0 C2.97 0 5.94 0 9 0 C9 0.99 9 1.98 9 3 C23.52 3 38.04 3 53 3 C53 2.01 53 1.02 53 0 C55.97 0 58.94 0 62 0 C62 3.3 62 6.6 62 10 C61.01 10 60.02 10 59 10 C59 24.19 59 38.38 59 53 C59.99 53 60.98 53 62 53 C62 55.97 62 58.94 62 62 C59.03 62 56.06 62 53 62 C53 61.01 53 60.02 53 59 C38.48 59 23.96 59 9 59 C9 59.99 9 60.98 9 62 C6.03 62 3.06 62 0 62 C0 59.03 0 56.06 0 53 C0.99 53 1.98 53 3 53 C2.505 49.04 2.505 49.04 2 45 C1.45698242 45.60585938 0.91396484 46.21171875 0.35449219 46.8359375 C-2.14771136 49.58910264 -4.69726237 52.29365925 -7.25 55 C-8.10335938 55.95390625 -8.95671875 56.9078125 -9.8359375 57.890625 C-16.34506674 64.69120779 -16.34506674 64.69120779 -21.34960938 65.625 C-24.30393108 65.625 -27.08372341 65.45626231 -30 65 C-30.46431694 62.21409835 -30.68373353 60.68968705 -30 58 C-27.61969454 54.99851833 -24.90085684 52.49292384 -22 50 C-22.48726562 49.5771875 -22.97453125 49.154375 -23.4765625 48.71875 C-25 47 -25 47 -25.375 43.5 C-25 40 -25 40 -23.92578125 38.32421875 C-21.00341279 36.31471995 -18.31376947 36.47310869 -14.8125 36.3125 C-12.90404297 36.21388672 -12.90404297 36.21388672 -10.95703125 36.11328125 C-9.49330078 36.05720703 -9.49330078 36.05720703 -8 36 C-9.05960938 35.95101562 -10.11921875 35.90203125 -11.2109375 35.8515625 C-12.59898497 35.77653291 -13.98700451 35.70098515 -15.375 35.625 C-16.07367188 35.5940625 -16.77234375 35.563125 -17.4921875 35.53125 C-22.7734375 35.2265625 -22.7734375 35.2265625 -25 33 C-25.25878906 31.15234375 -25.25878906 31.15234375 -25.265625 28.9375 C-25.26820312 28.14085938 -25.27078125 27.34421875 -25.2734375 26.5234375 C-25.26570313 25.69070312 -25.25796875 24.85796875 -25.25 24 C-25.25773437 23.16726562 -25.26546875 22.33453125 -25.2734375 21.4765625 C-25.26957031 20.28160156 -25.26957031 20.28160156 -25.265625 19.0625 C-25.26336914 18.33160156 -25.26111328 17.60070312 -25.25878906 16.84765625 C-25 15 -25 15 -23 13 C-20.14434641 12.77447659 -17.4174649 12.67571237 -14.5625 12.6875 C-13.39750977 12.66333008 -13.39750977 12.66333008 -12.20898438 12.63867188 C-6.47822742 12.63373582 -6.47822742 12.63373582 -4.28564453 14.31298828 C-2.20523166 17.0428882 -2.46671866 19.82553331 -2.3125 23.1875 C-2.21388672 25.09595703 -2.21388672 25.09595703 -2.11328125 27.04296875 C-2.07589844 28.01878906 -2.03851562 28.99460937 -2 30 C0.2861923 28.29907293 1.79691624 26.9218318 2.42382812 24.07617188 C2.61741254 21.79595119 2.70826216 19.53799241 2.75 17.25 C2.79447266 16.06083984 2.79447266 16.06083984 2.83984375 14.84765625 C2.91027787 12.89897906 2.95743482 10.94948505 3 9 C2.01 9 1.02 9 0 9 C0 6.03 0 3.06 0 0 Z M9 6 C9 7.32 9 8.64 9 10 C8.01 10 7.02 10 6 10 C6 24.19 6 38.38 6 53 C6.99 53 7.98 53 9 53 C9 53.99 9 54.98 9 56 C23.52 56 38.04 56 53 56 C53 55.01 53 54.02 53 53 C53.99 53 54.98 53 56 53 C56 38.48 56 23.96 56 9 C55.01 9 54.02 9 53 9 C53 8.01 53 7.02 53 6 C38.48 6 23.96 6 9 6 Z " fill="#C1C1C1" transform="translate(33,11)"/>
<path d="M0 0 C0.86832899 0.00184359 1.73665798 0.00368717 2.63129997 0.00558662 C3.62691948 0.0028373 4.62253899 0.00008797 5.64832878 -0.00274467 C7.29262367 0.00804115 7.29262367 0.00804115 8.97013664 0.01904488 C10.12135002 0.01875282 11.2725634 0.01846077 12.45866203 0.01815987 C16.27880603 0.01955759 20.09875702 0.03513974 23.91886711 0.05078316 C26.56159674 0.05451171 29.20432775 0.05735942 31.84705925 0.0593586 C38.10148595 0.06558071 44.35584294 0.08200137 50.61023891 0.10205758 C57.72984981 0.12439387 64.84946399 0.13540428 71.96910119 0.14544845 C86.616455 0.166367 101.26375383 0.20155715 115.91105461 0.24609566 C115.91105461 5.40932997 114.3652886 6.38543125 110.92082024 9.92968941 C110.23697258 10.61160347 109.55312492 11.29351753 108.84855461 11.99609566 C108.19177727 12.69347847 107.53499992 13.39086128 106.85832024 14.10937691 C101.99215744 19.00909945 101.99215744 19.00909945 98.85294914 19.69726753 C96.91496086 19.69922066 96.91496086 19.69922066 93.91105461 19.24609566 C93.91105461 20.23609566 93.91105461 21.22609566 93.91105461 22.24609566 C95.39605461 22.74109566 95.39605461 22.74109566 96.91105461 23.24609566 C93.06972558 27.2038286 89.13890294 30.62222566 84.91105461 34.24609566 C84.91105461 27.31609566 84.91105461 20.38609566 84.91105461 13.24609566 C85.90105461 13.24609566 86.89105461 13.24609566 87.91105461 13.24609566 C87.91105461 9.94609566 87.91105461 6.64609566 87.91105461 3.24609566 C84.94105461 3.24609566 81.97105461 3.24609566 78.91105461 3.24609566 C78.91105461 4.23609566 78.91105461 5.22609566 78.91105461 6.24609566 C64.39105461 6.24609566 49.87105461 6.24609566 34.91105461 6.24609566 C34.91105461 5.25609566 34.91105461 4.26609566 34.91105461 3.24609566 C31.94105461 3.24609566 28.97105461 3.24609566 25.91105461 3.24609566 C25.91105461 6.21609566 25.91105461 9.18609566 25.91105461 12.24609566 C26.90105461 12.24609566 27.89105461 12.24609566 28.91105461 12.24609566 C29.07368389 14.97766525 29.19216147 17.69951688 29.28605461 20.43359566 C29.33632805 21.20252144 29.38660149 21.97144722 29.43839836 22.76367378 C29.4577343 23.51455269 29.47707024 24.26543159 29.49699211 25.03906441 C29.52841301 25.72508736 29.55983391 26.41111031 29.59220695 27.11792183 C28.91105461 29.24609566 28.91105461 29.24609566 22.91105461 34.24609566 C22.58105461 28.63609566 22.25105461 23.02609566 21.91105461 17.24609566 C18.76516518 17.21925869 15.6195019 17.19933664 12.47355461 17.18359566 C11.57572258 17.17521675 10.67789055 17.16683784 9.75285149 17.15820503 C8.89884758 17.15498238 8.04484367 17.15175972 7.16496086 17.14843941 C6.37420158 17.14320259 5.58344231 17.13796577 4.76872063 17.13257027 C2.89512772 17.04113657 2.89512772 17.04113657 1.91105461 18.24609566 C1.81268251 19.57653191 1.78026869 20.9120291 1.77824211 22.24609566 C1.77695305 23.05047066 1.77566399 23.85484566 1.77433586 24.68359566 C1.77820305 25.52922066 1.78207024 26.37484566 1.78605461 27.24609566 C1.78218742 28.09172066 1.77832024 28.93734566 1.77433586 29.80859566 C1.77562492 30.61297066 1.77691399 31.41734566 1.77824211 32.24609566 C1.77937004 32.98859566 1.78049797 33.73109566 1.78166008 34.49609566 C1.72163245 36.27435377 1.72163245 36.27435377 2.91105461 37.24609566 C5.60341237 37.48288282 8.27603617 37.66807591 10.97355461 37.80859566 C12.11147453 37.87337105 12.11147453 37.87337105 13.27238274 37.93945503 C15.15170899 38.04583199 17.03135705 38.146495 18.91105461 38.24609566 C18.58105461 38.90609566 18.25105461 39.56609566 17.91105461 40.24609566 C15.60677248 40.50245069 13.29014348 40.65202098 10.97355461 40.74609566 C5.88211773 40.64921105 5.88211773 40.64921105 1.91105461 43.24609566 C1.49432254 46.70409925 1.49432254 46.70409925 1.91105461 50.24609566 C3.35630026 51.96305477 3.35630026 51.96305477 4.91105461 53.24609566 C3.60158781 54.58240802 2.28839977 55.9150749 0.97355461 57.24609566 C-0.12279305 58.35984566 -0.12279305 58.35984566 -1.24128914 59.49609566 C-3.08894539 61.24609566 -3.08894539 61.24609566 -4.08894539 61.24609566 C-4.13523707 53.58802351 -4.17079842 45.92996582 -4.19256973 38.27178574 C-4.20301763 34.71597167 -4.21719498 31.16025316 -4.2398243 27.60449409 C-4.26566371 23.51887266 -4.27540983 19.43335197 -4.28425789 15.34765816 C-4.29458046 14.06742775 -4.30490303 12.78719734 -4.31553841 11.46817207 C-4.31568947 10.28709877 -4.31584053 9.10602547 -4.31599617 7.88916206 C-4.32043739 6.84547462 -4.32487862 5.80178719 -4.32945442 4.72647285 C-4.02043724 1.53956901 -3.25781926 0.38379901 0 0 Z " fill="#C0C0C0" transform="translate(7.088945388793945,7.753904342651367)"/>
<path d="M0 0 C40.26 0 80.52 0 122 0 C122 3.96 122 7.92 122 12 C119.50206326 14.49793674 118.7409678 14.25096429 115.29321289 14.25396729 C114.3004837 14.25960693 113.30775452 14.26524658 112.28494263 14.27105713 C111.19188812 14.26700867 110.09883362 14.26296021 108.97265625 14.25878906 C107.25065506 14.26404602 107.25065506 14.26404602 105.49386597 14.26940918 C101.68334988 14.27824166 97.87301811 14.27237191 94.0625 14.265625 C91.42456018 14.26697121 88.78662061 14.26891137 86.14868164 14.27142334 C80.61374906 14.27506456 75.0788698 14.27025982 69.54394531 14.26074219 C63.13984815 14.2498573 56.73587832 14.25338277 50.33178425 14.264395 C44.17762369 14.27455492 38.0235197 14.27349181 31.86935425 14.26763153 C29.24738548 14.26629347 26.62541348 14.26794818 24.00344849 14.27259064 C20.34465822 14.27764655 16.68611549 14.26995863 13.02734375 14.25878906 C11.93428925 14.26283752 10.84123474 14.26688599 9.71505737 14.27105713 C8.22596359 14.26259766 8.22596359 14.26259766 6.70678711 14.25396729 C5.84105576 14.25321323 4.9753244 14.25245918 4.08335876 14.25168228 C2 14 2 14 0 12 C0 8.04 0 4.08 0 0 Z " fill="#DBDAFE" transform="translate(3,78)"/>
<path d="M0 0 C0 12.54 0 25.08 0 38 C-36.3 38 -72.6 38 -110 38 C-103.23829344 30.11134235 -103.23829344 30.11134235 -100.38671875 27.25390625 C-99.77892578 26.64482422 -99.17113281 26.03574219 -98.54492188 25.40820312 C-97.93197266 24.79912109 -97.31902344 24.19003906 -96.6875 23.5625 C-96.05521484 22.92634766 -95.42292969 22.29019531 -94.77148438 21.63476562 C-93.86946289 20.73467773 -93.86946289 20.73467773 -92.94921875 19.81640625 C-92.40612061 19.27443604 -91.86302246 18.73246582 -91.3034668 18.17407227 C-90 17 -90 17 -89 17 C-89 19.97 -89 22.94 -89 26 C-89.99 26 -90.98 26 -92 26 C-92 28.97 -92 31.94 -92 35 C-89.03 35 -86.06 35 -83 35 C-83 34.01 -83 33.02 -83 32 C-68.48 32 -53.96 32 -39 32 C-39 32.99 -39 33.98 -39 35 C-35.7 35 -32.4 35 -29 35 C-29.16435547 33.45119141 -29.16435547 33.45119141 -29.33203125 31.87109375 C-28.92118605 27.0811221 -27.07838631 25.1540647 -23.6875 22.0625 C-23.18798828 21.56943359 -22.68847656 21.07636719 -22.17382812 20.56835938 C-18.4371966 17 -18.4371966 17 -15 17 C-14.855625 16.360625 -14.71125 15.72125 -14.5625 15.0625 C-14 13 -14 13 -13 12 C-11.33382885 11.95936168 -9.66611905 11.957279 -8 12 C-8.24492188 11.42765625 -8.48984375 10.8553125 -8.7421875 10.265625 C-9 8 -9 8 -7.3828125 5.859375 C-6.63773437 5.16328125 -5.89265625 4.4671875 -5.125 3.75 C-4.38507813 3.04359375 -3.64515625 2.3371875 -2.8828125 1.609375 C-1 0 -1 0 0 0 Z " fill="#F6F6F6" transform="translate(125,38)"/>
<path d="M0 0 C1.23675202 0.63239096 2.46616697 1.27917601 3.69140625 1.93359375 C6.93984375 3.63515625 6.93984375 3.63515625 10.25390625 5.37109375 C10.25390625 12.96109375 10.25390625 20.55109375 10.25390625 28.37109375 C7.46953125 29.75296875 4.68515625 31.13484375 1.81640625 32.55859375 C0.95861572 33.00356201 0.1008252 33.44853027 -0.78295898 33.90698242 C-5.08650234 35.92587431 -7.854044 36.77814044 -12.46484375 35.27734375 C-13.90555382 34.67345991 -15.33428984 34.03977221 -16.74609375 33.37109375 C-17.83019531 32.91347656 -18.91429687 32.45585938 -20.03125 31.984375 C-22.60286458 30.77994792 -25.17447917 29.57552083 -27.74609375 28.37109375 C-27.74609375 20.78109375 -27.74609375 13.19109375 -27.74609375 5.37109375 C-25.49796875 4.23671875 -23.24984375 3.10234375 -20.93359375 1.93359375 C-20.23000732 1.57724854 -19.5264209 1.22090332 -18.80151367 0.85375977 C-11.88890775 -2.61793102 -7.17804914 -3.40605469 0 0 Z " fill="#3C374C" transform="translate(72.74609375,25.62890625)"/>
<path d="M0 0 C0.23376694 4.49911447 0.37490714 8.99665691 0.5 13.5 C0.60054687 15.40265625 0.60054687 15.40265625 0.703125 17.34375 C0.89883369 26.73776689 0.89883369 26.73776689 -1.81640625 30.55078125 C-4.03125 32.65625 -4.03125 32.65625 -6.26757812 34.36914062 C-6.83927734 34.90732422 -7.41097656 35.44550781 -8 36 C-8 37.32 -8 38.64 -8 40 C-8.969375 40.268125 -9.93875 40.53625 -10.9375 40.8125 C-12.4534375 41.4003125 -12.4534375 41.4003125 -14 42 C-14.33 42.99 -14.66 43.98 -15 45 C-16.0209375 45.5878125 -16.0209375 45.5878125 -17.0625 46.1875 C-21.65286254 49.01985135 -26.87928742 52.82862184 -28.734375 58.078125 C-29.06845496 60.17193436 -29.06845496 60.17193436 -29 63 C-29.33 63 -29.66 63 -30 63 C-30 60.03 -30 57.06 -30 54 C-30.99 54 -31.98 54 -33 54 C-33.20488457 50.48003799 -33.32813842 46.96162121 -33.4375 43.4375 C-33.49615234 42.44685547 -33.55480469 41.45621094 -33.61523438 40.43554688 C-33.78481352 33.14364367 -33.78481352 33.14364367 -31.49633789 29.80883789 C-29.74468049 28.05718049 -27.95191437 26.52153681 -26 25 C-25.195625 24.195625 -24.39125 23.39125 -23.5625 22.5625 C-23.046875 22.046875 -22.53125 21.53125 -22 21 C-22.66 20.67 -23.32 20.34 -24 20 C-24 19.01 -24 18.02 -24 17 C-23.01773438 17.00128906 -22.03546875 17.00257812 -21.0234375 17.00390625 C-15.43648638 16.20597142 -12.28914061 11.88842878 -8.625 7.9375 C-7.20222852 6.44498482 -5.77784147 4.95400744 -4.3515625 3.46484375 C-3.42077881 2.46892212 -3.42077881 2.46892212 -2.47119141 1.45288086 C-1 0 -1 0 0 0 Z " fill="#C0C0C0" transform="translate(125,10)"/>
<path d="M0 0 C2.97 0 5.94 0 9 0 C9 0.99 9 1.98 9 3 C23.52 3 38.04 3 53 3 C53 2.01 53 1.02 53 0 C55.97 0 58.94 0 62 0 C62 3.3 62 6.6 62 10 C61.01 10 60.02 10 59 10 C59 24.19 59 38.38 59 53 C59.99 53 60.98 53 62 53 C62 55.97 62 58.94 62 62 C59.03 62 56.06 62 53 62 C53 61.01 53 60.02 53 59 C38.48 59 23.96 59 9 59 C9 59.99 9 60.98 9 62 C6.03 62 3.06 62 0 62 C0 59.03 0 56.06 0 53 C0.99 53 1.98 53 3 53 C3 38.48 3 23.96 3 9 C2.01 9 1.02 9 0 9 C0 6.03 0 3.06 0 0 Z M9 6 C9 7.32 9 8.64 9 10 C8.01 10 7.02 10 6 10 C6 24.19 6 38.38 6 53 C6.99 53 7.98 53 9 53 C9 53.99 9 54.98 9 56 C23.52 56 38.04 56 53 56 C53 55.01 53 54.02 53 53 C53.99 53 54.98 53 56 53 C56 38.48 56 23.96 56 9 C55.01 9 54.02 9 53 9 C53 8.01 53 7.02 53 6 C38.48 6 23.96 6 9 6 Z " fill="#413E4D" transform="translate(33,11)"/>
<path d="M0 0 C14.52 0 29.04 0 44 0 C44 4.95 44 9.9 44 15 C29.48 15 14.96 15 0 15 C0 10.05 0 5.1 0 0 Z " fill="#BDBCE5" transform="translate(42,95)"/>
<path d="M0 0 C4.95 0 9.9 0 15 0 C9.2546435 6.81426004 9.2546435 6.81426004 6.34375 8.9375 C2.63163969 13.7879908 3.21747164 18.86812449 3.1875 24.8125 C3.16236328 25.98232422 3.13722656 27.15214844 3.11132812 28.35742188 C3.05252818 31.2386193 3.01619468 34.11829983 3 37 C3.59748047 37.18900879 4.19496094 37.37801758 4.81054688 37.57275391 C8.92031477 38.90184551 12.71967264 40.25981683 16.5 42.375 C20.16125087 44.08700347 22.01858244 44.05976806 25.8125 42.6875 C26.87404297 42.19830078 26.87404297 42.19830078 27.95703125 41.69921875 C30.4089571 40.86003189 31.56109802 41.29176754 34 42 C30.92408227 46.17816084 28.12662931 49.54678392 22.90234375 50.66015625 C19.40554503 50.78576547 15.99313516 50.69960772 12.5 50.5 C11.29601562 50.46390625 10.09203125 50.4278125 8.8515625 50.390625 C5.89769969 50.29685158 2.95055162 50.16576133 0 50 C0 49.01 0 48.02 0 47 C-0.99 47 -1.98 47 -3 47 C-3 32.81 -3 18.62 -3 4 C-2.01 4 -1.02 4 0 4 C0 2.68 0 1.36 0 0 Z " fill="#C3C3C3" transform="translate(42,17)"/>
<path d="M0 0 C26.4 0 52.8 0 80 0 C80 2.31 80 4.62 80 7 C53.6 7 27.2 7 0 7 C0 4.69 0 2.38 0 0 Z " fill="#D6D5EF" transform="translate(24,113)"/>
<path d="M0 0 C40.26 0 80.52 0 122 0 C122 3.96 122 7.92 122 12 C120 14 120 14 116.5234375 14.1953125 C115.14049032 14.18201493 113.75761346 14.15816232 112.375 14.125 C111.66859375 14.11597656 110.9621875 14.10695313 110.234375 14.09765625 C108.48943902 14.07407603 106.74467705 14.03820461 105 14 C105.33 13.34 105.66 12.68 106 12 C106.33 8.37 106.66 4.74 107 1 C76.64 1 46.28 1 15 1 C15.21810589 7.72242951 15.21810589 7.72242951 17 14 C14.54137599 14.05383848 12.0839245 14.09359038 9.625 14.125 C8.57699219 14.15013672 8.57699219 14.15013672 7.5078125 14.17578125 C5.67102514 14.19344267 3.83398037 14.10303261 2 14 C1.34 13.34 0.68 12.68 0 12 C0 8.04 0 4.08 0 0 Z " fill="#A5A3C6" transform="translate(3,78)"/>
<path d="M0 0 C0 2.97 0 5.94 0 9 C-0.99 9 -1.98 9 -3 9 C-3 11.97 -3 14.94 -3 18 C-0.03 18 2.94 18 6 18 C6 17.01 6 16.02 6 15 C20.52 15 35.04 15 50 15 C50 15.99 50 16.98 50 18 C52.97 18 55.94 18 59 18 C59 18.33 59 18.66 59 19 C56.36 19 53.72 19 51 19 C51 19.66 51 20.32 51 21 C27.24 21 3.48 21 -21 21 C-14.23829344 13.11134235 -14.23829344 13.11134235 -11.38671875 10.25390625 C-10.77892578 9.64482422 -10.17113281 9.03574219 -9.54492188 8.40820312 C-8.62549805 7.49458008 -8.62549805 7.49458008 -7.6875 6.5625 C-7.05521484 5.92634766 -6.42292969 5.29019531 -5.77148438 4.63476562 C-4.86946289 3.73467773 -4.86946289 3.73467773 -3.94921875 2.81640625 C-3.40612061 2.27443604 -2.86302246 1.73246582 -2.3034668 1.17407227 C-1 0 -1 0 0 0 Z " fill="#F0F0F0" transform="translate(36,55)"/>
<path d="M0 0 C1.11826172 0.00966797 2.23652344 0.01933594 3.38867188 0.02929688 C5.13954102 0.06700195 5.13954102 0.06700195 6.92578125 0.10546875 C8.10462891 0.11900391 9.28347656 0.13253906 10.49804688 0.14648438 C13.41191536 0.18187549 16.3248707 0.23125066 19.23828125 0.29296875 C17.15474939 4.87235246 14.03233084 7.97809383 10.55078125 11.54296875 C9.95072266 12.19265625 9.35066406 12.84234375 8.73242188 13.51171875 C5.45584652 16.86220182 4.09338588 18.20180261 -0.71875 18.71484375 C-1.72292969 18.575625 -2.72710937 18.43640625 -3.76171875 18.29296875 C-3.76171875 19.28296875 -3.76171875 20.27296875 -3.76171875 21.29296875 C-2.77171875 21.62296875 -1.78171875 21.95296875 -0.76171875 22.29296875 C-4.60304778 26.25070169 -8.53387042 29.66909875 -12.76171875 33.29296875 C-12.76171875 26.36296875 -12.76171875 19.43296875 -12.76171875 12.29296875 C-11.77171875 11.96296875 -10.78171875 11.63296875 -9.76171875 11.29296875 C-9.65859375 10.03484375 -9.55546875 8.77671875 -9.44921875 7.48046875 C-9.24987824 5.04851456 -9.034558 3.66766799 -7.58984375 1.68359375 C-5.01514794 -0.27493554 -3.20791303 -0.04885147 0 0 Z " fill="#F6F6F6" transform="translate(104.76171875,8.70703125)"/>
<path d="M0 0 C1.55214428 0.00399351 3.1042894 0.01875918 4.65625 0.04296875 C5.83380859 0.04393555 5.83380859 0.04393555 7.03515625 0.04492188 C12.87531304 0.09000027 12.87531304 0.09000027 15.15625 1.23046875 C15.18513514 4.37628298 15.20300923 7.52206344 15.21875 10.66796875 C15.22712891 11.56580078 15.23550781 12.46363281 15.24414062 13.38867188 C15.24897461 14.66967773 15.24897461 14.66967773 15.25390625 15.9765625 C15.26176147 17.16270142 15.26176147 17.16270142 15.26977539 18.37280273 C15.15625 20.23046875 15.15625 20.23046875 14.15625 21.23046875 C12.75276265 21.32907006 11.34444523 21.36125812 9.9375 21.36328125 C8.66326172 21.36521484 8.66326172 21.36521484 7.36328125 21.3671875 C6.02330078 21.36138672 6.02330078 21.36138672 4.65625 21.35546875 C3.76292969 21.35933594 2.86960937 21.36320312 1.94921875 21.3671875 C1.09972656 21.36589844 0.25023437 21.36460938 -0.625 21.36328125 C-1.40939453 21.36215332 -2.19378906 21.36102539 -3.00195312 21.35986328 C-4.84375 21.23046875 -4.84375 21.23046875 -5.84375 20.23046875 C-5.97042764 17.24028714 -6.02895838 14.28352767 -6.03125 11.29296875 C-6.04349609 10.45572266 -6.05574219 9.61847656 -6.06835938 8.75585938 C-6.07029297 7.95470703 -6.07222656 7.15355469 -6.07421875 6.328125 C-6.07832764 5.59086182 -6.08243652 4.85359863 -6.08666992 4.09399414 C-5.57181299 0.14434293 -3.66738611 0.21989409 0 0 Z " fill="#3E4160" transform="translate(13.84375,23.76953125)"/>
<path d="M0 0 C2.97 0 5.94 0 9 0 C9 1.32 9 2.64 9 4 C23.19 4 37.38 4 52 4 C52 4.33 52 4.66 52 5 C37.81 5 23.62 5 9 5 C9 6.65 9 8.3 9 10 C8.01 10 7.02 10 6 10 C6 24.19 6 38.38 6 53 C6.99 53 7.98 53 9 53 C9 54.32 9 55.64 9 57 C23.19 57 37.38 57 52 57 C52 57.66 52 58.32 52 59 C37.81 59 23.62 59 9 59 C9 59.99 9 60.98 9 62 C6.03 62 3.06 62 0 62 C0 59.03 0 56.06 0 53 C0.99 53 1.98 53 3 53 C3 38.48 3 23.96 3 9 C2.01 9 1.02 9 0 9 C0 6.03 0 3.06 0 0 Z " fill="#3E3B4A" transform="translate(33,11)"/>
<path d="M0 0 C15.84 0 31.68 0 48 0 C48.495 1.98 48.495 1.98 49 4 C47.83325195 5.72573853 47.83325195 5.72573853 46 7 C43.98901367 7.38095093 43.98901367 7.38095093 41.66796875 7.38818359 C40.79696533 7.39764008 39.92596191 7.40709656 39.02856445 7.4168396 C38.09101318 7.41076691 37.15346191 7.40469421 36.1875 7.3984375 C34.73960083 7.40274277 34.73960083 7.40274277 33.26245117 7.40713501 C31.22151096 7.40917661 29.18055123 7.40364007 27.13964844 7.39111328 C24.0119256 7.3750612 20.88549504 7.39095895 17.7578125 7.41015625 C15.77603881 7.40817384 13.79426592 7.4043302 11.8125 7.3984375 C10.87494873 7.40451019 9.93739746 7.41058289 8.97143555 7.4168396 C8.10043213 7.40738312 7.22942871 7.39792664 6.33203125 7.38818359 C5.56608643 7.38579681 4.8001416 7.38341003 4.01098633 7.38095093 C2 7 2 7 0.16674805 5.72573853 C-0.41079224 4.87149796 -0.41079224 4.87149796 -1 4 C-0.67 2.68 -0.34 1.36 0 0 Z " fill="#FAFAFF" transform="translate(40,81)"/>
<path d="M0 0 C0 7.92 0 15.84 0 24 C-7.92 24 -15.84 24 -24 24 C-17.23832509 16.11137927 -17.23832509 16.11137927 -13.73046875 12.59765625 C-12.61575195 11.48100586 -12.61575195 11.48100586 -11.47851562 10.34179688 C-10.72248047 9.58962891 -9.96644531 8.83746094 -9.1875 8.0625 C-8.41212891 7.28326172 -7.63675781 6.50402344 -6.83789062 5.70117188 C-5.7328418 4.59805664 -5.7328418 4.59805664 -4.60546875 3.47265625 C-3.93668701 2.80500244 -3.26790527 2.13734863 -2.57885742 1.44946289 C-1 0 -1 0 0 0 Z " fill="#C1C1C1" transform="translate(125,52)"/>
<path d="M0 0 C5.3857627 1.71365177 9.88779718 3.44389859 15 6 C15 11.94 15 17.88 15 24 C9.6142373 22.28634823 5.11220282 20.55610141 0 18 C0 12.06 0 6.12 0 0 Z " fill="#9750F8" transform="translate(48,34)"/>
<path d="M0 0 C0 5.94 0 11.88 0 18 C-11.625 24 -11.625 24 -15 24 C-15 18.06 -15 12.12 -15 6 C-3.15384615 0 -3.15384615 0 0 0 Z " fill="#4E04B7" transform="translate(80,34)"/>
<path d="M0 0 C16.83 0 33.66 0 51 0 C50.01 0.33 49.02 0.66 48 1 C48 2.32 48 3.64 48 5 C33.48 5 18.96 5 4 5 C4 3.68 4 2.36 4 1 C2.68 0.67 1.36 0.34 0 0 Z " fill="#C2C2C2" transform="translate(38,9)"/>
<path d="M0 0 C1.10589478 0.00616333 1.10589478 0.00616333 2.23413086 0.01245117 C3.0352832 0.01438477 3.83643555 0.01631836 4.66186523 0.01831055 C5.49911133 0.03055664 6.33635742 0.04280273 7.19897461 0.05541992 C8.46064453 0.05638672 8.46064453 0.05638672 9.74780273 0.05737305 C15.99624277 0.10268808 15.99624277 0.10268808 17.13647461 1.24291992 C17.23438031 2.74030116 17.26622325 4.24234884 17.26147461 5.74291992 C17.2653418 6.96495117 17.2653418 6.96495117 17.26928711 8.21166992 C17.13647461 10.24291992 17.13647461 10.24291992 16.13647461 11.24291992 C13.146293 11.36959757 10.18953353 11.42812831 7.19897461 11.43041992 C6.36172852 11.44266602 5.52448242 11.45491211 4.66186523 11.4675293 C3.46013672 11.47042969 3.46013672 11.47042969 2.23413086 11.47338867 C1.49686768 11.47749756 0.75960449 11.48160645 0 11.48583984 C-1.86352539 11.24291992 -1.86352539 11.24291992 -3.86352539 9.24291992 C-4.11352539 5.74291992 -4.11352539 5.74291992 -3.86352539 2.24291992 C-1.86352539 0.24291992 -1.86352539 0.24291992 0 0 Z " fill="#312E3E" transform="translate(11.863525390625,48.757080078125)"/>
<path d="M0 0 C0 5.94 0 11.88 0 18 C-0.99 18 -1.98 18 -3 18 C-3 18.99 -3 19.98 -3 21 C-8.94 21 -14.88 21 -21 21 C-19.4375 19.27473958 -17.875 17.54947917 -16.3125 15.82421875 C-14.70798502 13.96868665 -14.70798502 13.96868665 -15 11 C-14.36191406 10.82984375 -13.72382812 10.6596875 -13.06640625 10.484375 C-12.24011719 10.24203125 -11.41382812 9.9996875 -10.5625 9.75 C-9.73878906 9.51796875 -8.91507813 9.2859375 -8.06640625 9.046875 C-5.81401906 8.20964201 -5.81401906 8.20964201 -5.33984375 6.03125 C-5.22769531 5.3609375 -5.11554688 4.690625 -5 4 C-1.44444444 0 -1.44444444 0 0 0 Z " fill="#BFBFBF" transform="translate(89,46)"/>
<path d="M0 0 C14.52 0 29.04 0 44 0 C44 1.65 44 3.3 44 5 C29.48 5 14.96 5 0 5 C0 3.35 0 1.7 0 0 Z " fill="#AA9ACD" transform="translate(42,95)"/>
<path d="M0 0 C1.58997171 0.62859347 3.17632221 1.26671495 4.75390625 1.92578125 C9.11337631 3.75579325 9.11337631 3.75579325 13.68359375 3.5546875 C15.36517407 2.75186851 17.02739239 1.90882937 18.6875 1.0625 C20.88671875 1.4609375 20.88671875 1.4609375 22.6875 2.0625 C19.62703179 6.16315755 16.83125805 9.59137502 11.68359375 10.72265625 C8.32097395 10.84809694 5.04626078 10.76256364 1.6875 10.5625 C0.53121094 10.52640625 -0.62507813 10.4903125 -1.81640625 10.453125 C-4.65192843 10.35938873 -7.48043416 10.22834169 -10.3125 10.0625 C-8.22847776 5.76292069 -5.28458486 0.14282662 0 0 Z " fill="#F4F4F4" transform="translate(53.3125,56.9375)"/>
<path d="M0 0 C4.95 0 9.9 0 15 0 C15.1953125 8.3984375 15.1953125 8.3984375 15 11 C13 13 13 13 9.5234375 13.1953125 C8.14049032 13.18201493 6.75761346 13.15816232 5.375 13.125 C4.66859375 13.11597656 3.9621875 13.10695313 3.234375 13.09765625 C1.48943902 13.07407603 -0.25532295 13.03820461 -2 13 C-1.67 12.34 -1.34 11.68 -1 11 C-0.7724985 9.12943209 -0.59037189 7.25314042 -0.4375 5.375 C-0.293125 3.60125 -0.14875 1.8275 0 0 Z " fill="#BDBCE5" transform="translate(110,79)"/>
<path d="M0 0 C0.33 0 0.66 0 1 0 C1.495 6.93 1.495 6.93 2 14 C3.65 12.68 5.3 11.36 7 10 C7.13539281 12.89740622 7.23426829 15.78845621 7.3125 18.6875 C7.35439453 19.50412109 7.39628906 20.32074219 7.43945312 21.16210938 C7.53197233 25.73255814 7.48446766 27.40737212 4.48046875 31.08203125 C3.25263672 32.03142578 3.25263672 32.03142578 2 33 C0.515 32.505 0.515 32.505 -1 32 C-1 29.03 -1 26.06 -1 23 C-6.61 22.67 -12.22 22.34 -18 22 C-18 21.67 -18 21.34 -18 21 C-13.38 20.67 -8.76 20.34 -4 20 C-8.95 19.67 -13.9 19.34 -19 19 C-19 18.67 -19 18.34 -19 18 C-13.06 17.67 -7.12 17.34 -1 17 C-0.67 11.39 -0.34 5.78 0 0 Z " fill="#B8B7B9" transform="translate(29,27)"/>
<path d="M0 0 C0.309375 0.639375 0.61875 1.27875 0.9375 1.9375 C1.8345163 3.93610821 1.8345163 3.93610821 3 5 C5.69235776 5.23678716 8.36498156 5.42198025 11.0625 5.5625 C12.20041992 5.62727539 12.20041992 5.62727539 13.36132812 5.69335938 C15.24065438 5.79973633 17.12030244 5.90039934 19 6 C18.67 6.66 18.34 7.32 18 8 C15.69571787 8.25635503 13.37908887 8.40592533 11.0625 8.5 C5.97106312 8.40311539 5.97106312 8.40311539 2 11 C1.58326793 14.45800359 1.58326793 14.45800359 2 18 C3.44524565 19.71695911 3.44524565 19.71695911 5 21 C3.6905332 22.33631236 2.37734515 23.66897925 1.0625 25 C-0.03384766 26.11375 -0.03384766 26.11375 -1.15234375 27.25 C-3 29 -3 29 -4 29 C-4.11614929 24.9169058 -4.18723457 20.83423623 -4.25 16.75 C-4.28351562 15.59113281 -4.31703125 14.43226562 -4.3515625 13.23828125 C-4.36445312 12.12324219 -4.37734375 11.00820313 -4.390625 9.859375 C-4.41157227 8.83295898 -4.43251953 7.80654297 -4.45410156 6.74902344 C-3.88879153 3.32677023 -2.62690073 2.17241963 0 0 Z " fill="#F6F6F6" transform="translate(7,40)"/>
<path d="M0 0 C1.55214428 0.00399351 3.1042894 0.01875918 4.65625 0.04296875 C5.83380859 0.04393555 5.83380859 0.04393555 7.03515625 0.04492188 C12.87531304 0.09000027 12.87531304 0.09000027 15.15625 1.23046875 C15.18513514 4.37628298 15.20300923 7.52206344 15.21875 10.66796875 C15.22712891 11.56580078 15.23550781 12.46363281 15.24414062 13.38867188 C15.24897461 14.66967773 15.24897461 14.66967773 15.25390625 15.9765625 C15.26176147 17.16270142 15.26176147 17.16270142 15.26977539 18.37280273 C15.15625 20.23046875 15.15625 20.23046875 14.15625 21.23046875 C12.75276265 21.32907006 11.34444523 21.36125812 9.9375 21.36328125 C8.66326172 21.36521484 8.66326172 21.36521484 7.36328125 21.3671875 C6.02330078 21.36138672 6.02330078 21.36138672 4.65625 21.35546875 C3.76292969 21.35933594 2.86960937 21.36320312 1.94921875 21.3671875 C1.09972656 21.36589844 0.25023437 21.36460938 -0.625 21.36328125 C-1.40939453 21.36215332 -2.19378906 21.36102539 -3.00195312 21.35986328 C-4.84375 21.23046875 -4.84375 21.23046875 -5.84375 20.23046875 C-5.97042764 17.24028714 -6.02895838 14.28352767 -6.03125 11.29296875 C-6.04349609 10.45572266 -6.05574219 9.61847656 -6.06835938 8.75585938 C-6.07029297 7.95470703 -6.07222656 7.15355469 -6.07421875 6.328125 C-6.07832764 5.59086182 -6.08243652 4.85359863 -6.08666992 4.09399414 C-5.57181299 0.14434293 -3.66738611 0.21989409 0 0 Z M-2.84375 3.23046875 C-2.84375 8.51046875 -2.84375 13.79046875 -2.84375 19.23046875 C2.43625 19.23046875 7.71625 19.23046875 13.15625 19.23046875 C13.15625 13.95046875 13.15625 8.67046875 13.15625 3.23046875 C7.87625 3.23046875 2.59625 3.23046875 -2.84375 3.23046875 Z " fill="#373545" transform="translate(13.84375,23.76953125)"/>
<path d="M0 0 C2.50093048 1.23815405 4.96082771 2.52396345 7.40234375 3.875 C5.73230253 7.21508244 2.39429954 7.82851251 -0.97265625 9.10546875 C-7.09737329 10.90095871 -11.76306181 8.55720311 -17.09375 5.71484375 C-17.83818359 5.29912109 -17.83818359 5.29912109 -18.59765625 4.875 C-13.60993876 -0.50450194 -6.90384371 -2.98993532 0 0 Z " fill="#AD8ED9" transform="translate(69.59765625,27.125)"/>
<path d="M0 0 C2.97 0 5.94 0 9 0 C9 1.32 9 2.64 9 4 C23.19 4 37.38 4 52 4 C52 4.33 52 4.66 52 5 C37.81 5 23.62 5 9 5 C9 6.32 9 7.64 9 9 C7.68 9 6.36 9 5 9 C5 23.19 5 37.38 5 52 C4.67 52 4.34 52 4 52 C4 37.81 4 23.62 4 9 C2.68 9 1.36 9 0 9 C0 6.03 0 3.06 0 0 Z " fill="#302D3D" transform="translate(33,11)"/>
<path d="M0 0 C0.17456339 4.0619557 0.2809442 8.12294587 0.375 12.1875 C0.45041016 13.91323242 0.45041016 13.91323242 0.52734375 15.67382812 C0.54667969 16.78564453 0.56601563 17.89746094 0.5859375 19.04296875 C0.6173584 20.06414795 0.6487793 21.08532715 0.68115234 22.13745117 C0 25 0 25 -6 30 C-6.33 23.4 -6.66 16.8 -7 10 C-7.66 9.67 -8.32 9.34 -9 9 C-7.45665977 5.21180126 -4.44676575 0 0 0 Z " fill="#F5F5F5" transform="translate(89,21)"/>
<path d="M0 0 C0.99 0.33 1.98 0.66 3 1 C3 7.6 3 14.2 3 21 C-10.85482782 28.22012154 -10.85482782 28.22012154 -16 29 C-19.0625 27.8125 -19.0625 27.8125 -21 26 C-21 25.34 -21 24.68 -21 24 C-19.35 24.33 -17.7 24.66 -16 25 C-16.08670137 22.04019468 -16.19353023 19.08353131 -16.3125 16.125 C-16.33505859 15.28324219 -16.35761719 14.44148438 -16.38085938 13.57421875 C-16.41630859 12.76855469 -16.45175781 11.96289062 -16.48828125 11.1328125 C-16.51446533 10.38918457 -16.54064941 9.64555664 -16.56762695 8.87939453 C-16.86729591 6.59266174 -16.86729591 6.59266174 -20 5 C-20 4.34 -20 3.68 -20 3 C-17.69 3.33 -15.38 3.66 -13 4 C-13.33 10.93 -13.66 17.86 -14 25 C-9.38 23.02 -4.76 21.04 0 19 C0 12.73 0 6.46 0 0 Z " fill="#353045" transform="translate(79,33)"/>
<path d="M0 0 C0.89549561 0.0314209 1.79099121 0.0628418 2.71362305 0.09521484 C3.69008789 0.11455078 4.66655273 0.13388672 5.67260742 0.15380859 C6.68000977 0.20408203 7.68741211 0.25435547 8.7253418 0.30615234 C9.75208008 0.33322266 10.77881836 0.36029297 11.83666992 0.38818359 C14.36421756 0.45871981 16.88744222 0.55721805 19.4128418 0.68115234 C19.4128418 1.67115234 19.4128418 2.66115234 19.4128418 3.68115234 C22.3828418 3.68115234 25.3528418 3.68115234 28.4128418 3.68115234 C28.4128418 4.01115234 28.4128418 4.34115234 28.4128418 4.68115234 C25.7728418 4.68115234 23.1328418 4.68115234 20.4128418 4.68115234 C20.4128418 5.34115234 20.4128418 6.00115234 20.4128418 6.68115234 C11.1728418 6.68115234 1.9328418 6.68115234 -7.5871582 6.68115234 C-2.5871582 0.68115234 -2.5871582 0.68115234 0 0 Z " fill="#BABABA" transform="translate(66.587158203125,69.31884765625)"/>
<path d="M0 0 C0.33 1.32 0.66 2.64 1 4 C2.32 4 3.64 4 5 4 C5.16262928 6.73156959 5.28110686 9.45342122 5.375 12.1875 C5.45041016 13.34088867 5.45041016 13.34088867 5.52734375 14.51757812 C5.54667969 15.26845703 5.56601562 16.01933594 5.5859375 16.79296875 C5.6173584 17.4789917 5.6487793 18.16501465 5.68115234 18.87182617 C5 21 5 21 -1 26 C-1.33 20.39 -1.66 14.78 -2 9 C-3.65 8.67 -5.3 8.34 -7 8 C-6.02133662 6.85373678 -5.04205413 5.70800212 -4.0625 4.5625 C-3.51722656 3.92441406 -2.97195312 3.28632813 -2.41015625 2.62890625 C-1.63204305 1.73008851 -0.84063472 0.84063472 0 0 Z " fill="#F5F5F5" transform="translate(31,16)"/>
<path d="M0 0 C38.94 0 77.88 0 118 0 C118 0.33 118 0.66 118 1 C116.92516357 1.029729 116.92516357 1.029729 115.82861328 1.06005859 C112.5936937 1.15509519 109.35943906 1.26486019 106.125 1.375 C104.43310547 1.42140625 104.43310547 1.42140625 102.70703125 1.46875 C101.63066406 1.50742188 100.55429688 1.54609375 99.4453125 1.5859375 C98.45031738 1.6173584 97.45532227 1.6487793 96.43017578 1.68115234 C93.82145483 1.77247083 93.82145483 1.77247083 92 4 C91.54188325 5.97235333 91.54188325 5.97235333 91.375 8.125 C91.189375 10.043125 91.189375 10.043125 91 12 C90.67 12 90.34 12 90 12 C90 9.03 90 6.06 90 3 C87.03 3 84.06 3 81 3 C81 2.67 81 2.34 81 2 C54.27 1.67 27.54 1.34 0 1 C0 0.67 0 0.34 0 0 Z " fill="#A4A3A8" transform="translate(5,8)"/>
<path d="M0 0 C0 2.97 0 5.94 0 9 C-1.32 9 -2.64 9 -4 9 C-4.09152344 9.57234375 -4.18304687 10.1446875 -4.27734375 10.734375 C-5.69953799 15.19314613 -9.27618843 18.31732271 -13 21 C-15.9920378 21.6682724 -17.91194011 21.44115141 -21 21 C-16.77041966 15.95179121 -12.35800414 11.20353723 -7.6875 6.5625 C-7.05521484 5.92634766 -6.42292969 5.29019531 -5.77148438 4.63476562 C-4.86946289 3.73467773 -4.86946289 3.73467773 -3.94921875 2.81640625 C-3.40612061 2.27443604 -2.86302246 1.73246582 -2.3034668 1.17407227 C-1 0 -1 0 0 0 Z " fill="#F4F4F4" transform="translate(36,55)"/>
<path d="M0 0 C0 2.97 0 5.94 0 9 C-2.97 9 -5.94 9 -9 9 C-9.495 6.525 -9.495 6.525 -10 4 C-24.19 4 -38.38 4 -53 4 C-53 3.67 -53 3.34 -53 3 C-38.48 3 -23.96 3 -9 3 C-9 2.01 -9 1.02 -9 0 C-5.67465243 -1.10844919 -3.37817425 -0.84454356 0 0 Z " fill="#43414F" transform="translate(95,64)"/>
<path d="M0 0 C4.29 0 8.58 0 13 0 C8.31645873 5.64426769 3.3792354 11.0058046 -2 16 C-2.33 16 -2.66 16 -3 16 C-3 12.04 -3 8.08 -3 4 C-2.01 4 -1.02 4 0 4 C0 2.68 0 1.36 0 0 Z " fill="#F6F5F6" transform="translate(42,17)"/>
<path d="M0 0 C5.28 0 10.56 0 16 0 C16 5.28 16 10.56 16 16 C10.72 16 5.44 16 0 16 C0 15.67 0 15.34 0 15 C3.96 15 7.92 15 12 15 C11.979375 13.22625 11.95875 11.4525 11.9375 9.625 C11.875 4.25 11.875 4.25 13 2 C11.35333797 2.1135629 9.70763918 2.24117381 8.0625 2.375 C7.14597656 2.44460937 6.22945312 2.51421875 5.28515625 2.5859375 C4.53105469 2.72257812 3.77695313 2.85921875 3 3 C2.67 3.66 2.34 4.32 2 5 C1.34 5 0.68 5 0 5 C0 3.35 0 1.7 0 0 Z " fill="#454B72" transform="translate(11,27)"/>
<path d="M0 0 C8.25 0 16.5 0 25 0 C21 5 21 5 18.98535156 5.56762695 C18.2940918 5.54144287 17.60283203 5.51525879 16.890625 5.48828125 C15.75947266 5.46411133 15.75947266 5.46411133 14.60546875 5.43945312 C13.82816406 5.39755859 13.05085938 5.35566406 12.25 5.3125 C11.45722656 5.28994141 10.66445313 5.26738281 9.84765625 5.24414062 C7.8976238 5.18540471 5.94856688 5.09572654 4 5 C4 3.68 4 2.36 4 1 C2.68 0.67 1.36 0.34 0 0 Z " fill="#F5F5F6" transform="translate(38,9)"/>
<path d="M0 0 C0.721875 0.103125 1.44375 0.20625 2.1875 0.3125 C2.1875 1.3025 2.1875 2.2925 2.1875 3.3125 C3.1775 3.6425 4.1675 3.9725 5.1875 4.3125 C3.92177767 5.46397661 2.64972094 6.60849314 1.375 7.75 C0.31345703 8.70712891 0.31345703 8.70712891 -0.76953125 9.68359375 C-2.8125 11.3125 -2.8125 11.3125 -5.8125 12.3125 C-8.17772558 11.39046291 -10.51651807 10.39551035 -12.8125 9.3125 C-12.090625 8.755625 -11.36875 8.19875 -10.625 7.625 C-7.74225918 5.36813939 -7.74225918 5.36813939 -5.3125 2.5625 C-2.8125 0.3125 -2.8125 0.3125 0 0 Z " fill="#BDBDBE" transform="translate(83.8125,16.6875)"/>
<path d="M0 0 C2.47923801 -0.02685095 4.9581884 -0.04676547 7.4375 -0.0625 C8.14455078 -0.07087891 8.85160156 -0.07925781 9.58007812 -0.08789062 C11.38693559 -0.09653588 13.19387603 -0.05220011 15 0 C16 1 16 1 16 6 C10.72 6 5.44 6 0 6 C0 4.02 0 2.04 0 0 Z " fill="#43486D" transform="translate(11,51)"/>
<path d="M0 0 C2.375 0.9375 2.375 0.9375 5.375 2.9375 C2.04166667 6.27083333 -1.29166667 9.60416667 -4.625 12.9375 C-4.625 11.9475 -4.625 10.9575 -4.625 9.9375 C-5.615 9.9375 -6.605 9.9375 -7.625 9.9375 C-7.9375 7.75 -7.9375 7.75 -7.625 4.9375 C-3.79937722 -0.09046136 -3.79937722 -0.09046136 0 0 Z " fill="#BDBDBE" transform="translate(46.625,54.0625)"/>
<path d="M0 0 C0.33 0 0.66 0 1 0 C1 2.97 1 5.94 1 9 C3.97 9 6.94 9 10 9 C10 9.33 10 9.66 10 10 C7.36 10 4.72 10 2 10 C2 10.66 2 11.32 2 12 C-1.63 12 -5.26 12 -9 12 C-8.071875 10.948125 -7.14375 9.89625 -6.1875 8.8125 C-3.78033948 6.01928543 -1.84298896 3.20098082 0 0 Z " fill="#B4B4B6" transform="translate(32,64)"/>
<path d="M0 0 C1.794375 0.2165625 1.794375 0.2165625 3.625 0.4375 C2.64633662 1.58376322 1.66705413 2.72949788 0.6875 3.875 C0.14222656 4.51308594 -0.40304688 5.15117187 -0.96484375 5.80859375 C-1.74295695 6.70741149 -2.53436528 7.59686528 -3.375 8.4375 C-5.71444736 8.15019945 -8.0489143 7.81813221 -10.375 7.4375 C-5.32143307 -0.06628119 -5.32143307 -0.06628119 0 0 Z " fill="#F5F5F5" transform="translate(77.375,16.5625)"/>
<path d="M0 0 C0.33 0 0.66 0 1 0 C1 6.93 1 13.86 1 21 C2.65 21.33 4.3 21.66 6 22 C7.44896045 22.48804427 8.88796947 23.00717454 10.3125 23.5625 C11.529375 24.036875 12.74625 24.51125 14 25 C13.67 25.99 13.34 26.98 13 28 C11.58208592 27.54554036 10.16571954 27.08625056 8.75 26.625 C7.56664062 26.24214844 7.56664062 26.24214844 6.359375 25.8515625 C4 25 4 25 0 23 C0 15.41 0 7.82 0 0 Z " fill="#4B4658" transform="translate(45,31)"/>
<path d="M0 0 C5.28 0 10.56 0 16 0 C16 0.99 16 1.98 16 3 C10.72 3 5.44 3 0 3 C0 2.01 0 1.02 0 0 Z " fill="#43404F" transform="translate(101,47)"/>
<path d="M0 0 C0.7230444 7.10993658 0.7230444 7.10993658 -1.3359375 9.64453125 C-3 11 -3 11 -6 13 C-6.61393152 5.75560803 -6.61393152 5.75560803 -3.5625 2 C-1 0 -1 0 0 0 Z " fill="#F6F6F6" transform="translate(45,46)"/>
<path d="M0 0 C5.28 0 10.56 0 16 0 C16 0.99 16 1.98 16 3 C10.72 3 5.44 3 0 3 C0 2.01 0 1.02 0 0 Z " fill="#423F4D" transform="translate(101,42)"/>
<path d="M0 0 C5.28 0 10.56 0 16 0 C16 0.99 16 1.98 16 3 C10.72 3 5.44 3 0 3 C0 2.01 0 1.02 0 0 Z " fill="#423F4D" transform="translate(101,37)"/>
<path d="M0 0 C5.28 0 10.56 0 16 0 C16 0.99 16 1.98 16 3 C10.72 3 5.44 3 0 3 C0 2.01 0 1.02 0 0 Z " fill="#423F4D" transform="translate(101,32)"/>
<path d="M0 0 C5.28 0 10.56 0 16 0 C16 0.99 16 1.98 16 3 C10.72 3 5.44 3 0 3 C0 2.01 0 1.02 0 0 Z " fill="#444250" transform="translate(101,27)"/>
<path d="M0 0 C5.28 0 10.56 0 16 0 C16 1.65 16 3.3 16 5 C15.01 5 14.02 5 13 5 C13 4.01 13 3.02 13 2 C11.35333797 2.1135629 9.70763918 2.24117381 8.0625 2.375 C7.14597656 2.44460937 6.22945312 2.51421875 5.28515625 2.5859375 C4.53105469 2.72257812 3.77695313 2.85921875 3 3 C2.67 3.66 2.34 4.32 2 5 C1.34 5 0.68 5 0 5 C0 3.35 0 1.7 0 0 Z " fill="#5A7398" transform="translate(11,27)"/>
<path d="M0 0 C2.97 0 5.94 0 9 0 C9 1.32 9 2.64 9 4 C6.03 4 3.06 4 0 4 C0 2.68 0 1.36 0 0 Z " fill="#5B759A" transform="translate(14,52)"/>
<path d="M0 0 C1.98738098 0.01761863 3.97253109 0.16698176 5.953125 0.33203125 C4.963125 0.66203125 3.973125 0.99203125 2.953125 1.33203125 C2.953125 2.65203125 2.953125 3.97203125 2.953125 5.33203125 C-0.016875 5.33203125 -2.986875 5.33203125 -6.046875 5.33203125 C-3.15469741 0.51173527 -3.15469741 0.51173527 0 0 Z " fill="#F1F0F1" transform="translate(83.046875,8.66796875)"/>
<path d="M0 0 C0.99 0.33 1.98 0.66 3 1 C3 2.65 3 4.3 3 6 C7.95 6 12.9 6 18 6 C18 6.33 18 6.66 18 7 C13.38 7 8.76 7 4 7 C4 7.66 4 8.32 4 9 C2.68 8.34 1.36 7.68 0 7 C0 4.69 0 2.38 0 0 Z " fill="#3D3C51" transform="translate(8,51)"/>
<path d="M0 0 C3.3 0 6.6 0 10 0 C9.67 0.99 9.34 1.98 9 3 C6.03 3 3.06 3 0 3 C0 2.01 0 1.02 0 0 Z " fill="#353649" transform="translate(14,29)"/>
<path d="M0 0 C2.97 0 5.94 0 9 0 C9 0.99 9 1.98 9 3 C6.03 3 3.06 3 0 3 C0 2.01 0 1.02 0 0 Z " fill="#44414F" transform="translate(101,52)"/>
<path d="M0 0 C1.65 0 3.3 0 5 0 C5 1.65 5 3.3 5 5 C3.35 5 1.7 5 0 5 C0 3.35 0 1.7 0 0 Z " fill="#D12C5A" transform="translate(88,66)"/>
<path d="M0 0 C1.65 0 3.3 0 5 0 C5 1.65 5 3.3 5 5 C3.35 5 1.7 5 0 5 C0 3.35 0 1.7 0 0 Z " fill="#D12C5A" transform="translate(35,66)"/>
<path d="M0 0 C1.65 0 3.3 0 5 0 C5 1.65 5 3.3 5 5 C3.35 5 1.7 5 0 5 C0 3.35 0 1.7 0 0 Z " fill="#D42C5A" transform="translate(88,13)"/>
<path d="M0 0 C1.65 0 3.3 0 5 0 C5 1.65 5 3.3 5 5 C3.35 5 1.7 5 0 5 C0 3.35 0 1.7 0 0 Z " fill="#D42C5A" transform="translate(35,13)"/>
<path d="M0 0 C0.99 0 1.98 0 3 0 C3 1.32 3 2.64 3 4 C5.64 4 8.28 4 11 4 C11 4.33 11 4.66 11 5 C7.37 5 3.74 5 0 5 C0 3.35 0 1.7 0 0 Z " fill="#4A537C" transform="translate(11,52)"/>
</svg>
