<?xml version="1.0" encoding="UTF-8"?>
<svg version="1.1" xmlns="http://www.w3.org/2000/svg" width="128" height="128">
<path d="M0 0 C3.37462715 0.54723683 5.08235 1.0549 8 3 C6.28571429 14.42857143 6.28571429 14.42857143 4 19 C5.98 19.495 5.98 19.495 8 20 C8 51.02 8 82.04 8 114 C0.08 114 -7.84 114 -16 114 C-16.33 112.35 -16.66 110.7 -17 109 C-23.27 109 -29.54 109 -36 109 C-36 110.65 -36 112.3 -36 114 C-44.58 114 -53.16 114 -62 114 C-62 112.35 -62 110.7 -62 109 C-68.27 109 -74.54 109 -81 109 C-81.33 110.65 -81.66 112.3 -82 114 C-89.92 114 -97.84 114 -106 114 C-106.02254946 101.76119342 -106.04091418 89.52240053 -106.05181217 77.28357792 C-106.05704139 71.60123488 -106.06413973 65.91890673 -106.07543945 60.23657227 C-106.08626696 54.75770864 -106.09227654 49.27885938 -106.09487724 43.79998589 C-106.09673174 41.70470389 -106.10035282 39.60942272 -106.10573006 37.5141468 C-106.11293868 34.59022416 -106.11399102 31.66636167 -106.11352539 28.74243164 C-106.11712067 27.8670575 -106.12071594 26.99168335 -106.12442017 26.08978271 C-106.11405216 20.11405216 -106.11405216 20.11405216 -105 19 C-103.29227642 18.91286169 -101.58101351 18.89299993 -99.87109375 18.90234375 C-98.31938477 18.90717773 -98.31938477 18.90717773 -96.73632812 18.91210938 C-95.64771484 18.92048828 -94.55910156 18.92886719 -93.4375 18.9375 C-91.7987793 18.94426758 -91.7987793 18.94426758 -90.12695312 18.95117188 C-87.41791505 18.96300174 -84.70898401 18.97948457 -82 19 C-81.67 20.65 -81.34 22.3 -81 24 C-74.73 24 -68.46 24 -62 24 C-62 22.35 -62 20.7 -62 19 C-53.42 19 -44.84 19 -36 19 C-36 20.65 -36 22.3 -36 24 C-26.36055406 24.98144894 -26.36055406 24.98144894 -17 23 C-12.60501102 18.92745982 -10.25664366 13.25824118 -8.07055664 7.77172852 C-6.7163504 5.53057123 -5.35376383 5.05314399 -3 4 C-1.26574227 1.96682993 -1.26574227 1.96682993 0 0 Z M2 4 C1.67 4.99 1.34 5.98 1 7 C1.99 6.67 2.98 6.34 4 6 C3.34 5.34 2.68 4.68 2 4 Z M-4 9 C-4.93423645 12.01031744 -5.04449911 12.86650268 -4 16 C-5.32 15.67 -6.64 15.34 -8 15 C-7.34 16.65 -6.68 18.3 -6 20 C-7.32 20 -8.64 20 -10 20 C-9.67 21.65 -9.34 23.3 -9 25 C-10.32 25.33 -11.64 25.66 -13 26 C-12.67 27.32 -12.34 28.64 -12 30 C-13.32 29.67 -14.64 29.34 -16 29 C-16.33 30.32 -16.66 31.64 -17 33 C-15.68 33.99 -14.36 34.98 -13 36 C-11.68 35.34 -10.36 34.68 -9 34 C-9 33.34 -9 32.68 -9 32 C-9.66 32 -10.32 32 -11 32 C-11 31.01 -11 30.02 -11 29 C-9.68 29 -8.36 29 -7 29 C-7.33 27.35 -7.66 25.7 -8 24 C-6.68 24.33 -5.36 24.66 -4 25 C-4.33 23.35 -4.66 21.7 -5 20 C-3.68 19.67 -2.36 19.34 -1 19 C-1.66 17.68 -2.32 16.36 -3 15 C-1.35 15 0.3 15 2 15 C2.33 14.01 2.66 13.02 3 12 C-0.25397508 9.74114676 -0.25397508 9.74114676 -4 9 Z M-103 23 C-103 28.61 -103 34.22 -103 40 C-99.04 40 -95.08 40 -91 40 C-90.67 39.01 -90.34 38.02 -90 37 C-89.01 36.67 -88.02 36.34 -87 36 C-87 34.68 -87 33.36 -87 32 C-86.01 32 -85.02 32 -84 32 C-84 33.32 -84 34.64 -84 36 C-82.68 36 -81.36 36 -80 36 C-80 34.68 -80 33.36 -80 32 C-79.01 32.33 -78.02 32.66 -77 33 C-76.67 33.99 -76.34 34.98 -76 36 C-75.01 36.33 -74.02 36.66 -73 37 C-72.67 37.99 -72.34 38.98 -72 40 C-70.68 40 -69.36 40 -68 40 C-68.495 41.485 -68.495 41.485 -69 43 C-69.99 43.33 -70.98 43.66 -72 44 C-72 44.99 -72 45.98 -72 47 C-70.68 47 -69.36 47 -68 47 C-68 48.32 -68 49.64 -68 51 C-69.32 51 -70.64 51 -72 51 C-72.33 52.32 -72.66 53.64 -73 55 C-73.99 55 -74.98 55 -76 55 C-76.33 55.99 -76.66 56.98 -77 58 C-78.485 58.495 -78.485 58.495 -80 59 C-80 57.68 -80 56.36 -80 55 C-81.32 55 -82.64 55 -84 55 C-84 56.32 -84 57.64 -84 59 C-84.99 59 -85.98 59 -87 59 C-87 57.68 -87 56.36 -87 55 C-87.99 54.67 -88.98 54.34 -90 54 C-90.33 53.01 -90.66 52.02 -91 51 C-94.96 51 -98.92 51 -103 51 C-104.02772096 56.61049904 -104.02772096 56.61049904 -103 62 C-98.87147089 66.48231398 -92.09877775 70.75029664 -86.04296875 71.23828125 C-85.36878906 71.15964844 -84.69460937 71.08101562 -84 71 C-83.67 70.01 -83.34 69.02 -83 68 C-78.05 67.505 -78.05 67.505 -73 67 C-73 70.63 -73 74.26 -73 78 C-73.99 78 -74.98 78 -76 78 C-76 79.65 -76 81.3 -76 83 C-75.01 83 -74.02 83 -73 83 C-73 86.63 -73 90.26 -73 94 C-76.3 93.67 -79.6 93.34 -83 93 C-83.33 92.01 -83.66 91.02 -84 90 C-90.21837865 89.28661048 -95.14924978 92.79846842 -100.05859375 96.19921875 C-102.6165595 98.29334004 -102.97308194 98.90330294 -103.91015625 102.26953125 C-103.95240121 105.93846829 -103.95240121 105.93846829 -103 111 C-97.06 111 -91.12 111 -85 111 C-85 109.35 -85 107.7 -85 106 C-76.42 106 -67.84 106 -59 106 C-59 107.65 -59 109.3 -59 111 C-52.4 111 -45.8 111 -39 111 C-39 109.35 -39 107.7 -39 106 C-30.42 106 -21.84 106 -13 106 C-13 107.65 -13 109.3 -13 111 C-7.06 111 -1.12 111 5 111 C5 105.39 5 99.78 5 94 C1.37 94 -2.26 94 -6 94 C-6.495 95.485 -6.495 95.485 -7 97 C-8.65 97.33 -10.3 97.66 -12 98 C-12 99.32 -12 100.64 -12 102 C-12.99 102 -13.98 102 -15 102 C-15 100.68 -15 99.36 -15 98 C-16.65 98 -18.3 98 -20 98 C-20 96.68 -20 95.36 -20 94 C-21.65 94 -23.3 94 -25 94 C-25 92.68 -25 91.36 -25 90 C-23.35 90 -21.7 90 -20 90 C-20 89.01 -20 88.02 -20 87 C-21.65 87 -23.3 87 -25 87 C-25 86.01 -25 85.02 -25 84 C-23.35 84 -21.7 84 -20 84 C-20 83.01 -20 82.02 -20 81 C-21.65 81 -23.3 81 -25 81 C-25 79.68 -25 78.36 -25 77 C-23.35 77 -21.7 77 -20 77 C-19.67 76.01 -19.34 75.02 -19 74 C-16.9375 73.3125 -16.9375 73.3125 -15 73 C-15 71.68 -15 70.36 -15 69 C-14.01 69 -13.02 69 -12 69 C-12 70.32 -12 71.64 -12 73 C-10.35 73.33 -8.7 73.66 -7 74 C-6.67 74.99 -6.34 75.98 -6 77 C-2.37 77 1.26 77 5 77 C5 59.18 5 41.36 5 23 C0.0148156 23.44583575 0.0148156 23.44583575 -2.01953125 26.4765625 C-6.44130434 34.22265846 -6.44130434 34.22265846 -7 43 C-8.5 45.8125 -8.5 45.8125 -10 48 C-10 48.66 -10 49.32 -10 50 C-11.32 49.67 -12.64 49.34 -14 49 C-14.37511719 49.59167969 -14.75023438 50.18335937 -15.13671875 50.79296875 C-20.08518239 58.43379549 -25.60482015 65.97953122 -35 68 C-33.5731078 59.01897261 -31.93335836 50.75242027 -27 43 C-27 42.34 -27 41.68 -27 41 C-27.66 41 -28.32 41 -29 41 C-28.525625 39.9275 -28.05125 38.855 -27.5625 37.75 C-26.46233668 35.19160135 -25.54832997 32.74164983 -25 30 C-23.35 30 -21.7 30 -20 30 C-19.67 29.01 -19.34 28.02 -19 27 C-25.6 27 -32.2 27 -39 27 C-39 25.68 -39 24.36 -39 23 C-45.6 23 -52.2 23 -59 23 C-59 24.32 -59 25.64 -59 27 C-67.58 27 -76.16 27 -85 27 C-85 25.68 -85 24.36 -85 23 C-90.94 23 -96.88 23 -103 23 Z M-23 34 C-23.33 35.65 -23.66 37.3 -24 39 C-22.42953257 40.06096463 -20.84305483 41.09826235 -19.25 42.125 C-17.92742187 42.99511719 -17.92742187 42.99511719 -16.578125 43.8828125 C-14.06419563 45.31920245 -14.06419563 45.31920245 -11.671875 44.1796875 C-11.12015625 43.79039063 -10.5684375 43.40109375 -10 43 C-10.71259223 39.76794721 -10.71259223 39.76794721 -13.72265625 38.39453125 C-14.82480469 37.87246094 -15.92695312 37.35039063 -17.0625 36.8125 C-18.16722656 36.28269531 -19.27195312 35.75289062 -20.41015625 35.20703125 C-21.26480469 34.80871094 -22.11945313 34.41039062 -23 34 Z M-88 40 C-88 43.63 -88 47.26 -88 51 C-84.04 51 -80.08 51 -76 51 C-76 47.37 -76 43.74 -76 40 C-79.96 40 -83.92 40 -88 40 Z M-24 43 C-25.32 45.64 -26.64 48.28 -28 51 C-25.3299376 53.45251479 -25.3299376 53.45251479 -21.875 53.9375 C-19.40620527 52.70310264 -18.90752966 51.57133403 -18 49 C-18 48.01 -18 47.02 -18 46 C-19.98 45.01 -21.96 44.02 -24 43 Z M-103 44 C-103 44.99 -103 45.98 -103 47 C-99.04 47 -95.08 47 -91 47 C-91 46.01 -91 45.02 -91 44 C-94.96 44 -98.92 44 -103 44 Z M-29 56 C-31.30671915 58.71549154 -31.30671915 58.71549154 -30.625 61.1875 C-30.41875 61.785625 -30.2125 62.38375 -30 63 C-27.9375006 61.18777466 -27.9375006 61.18777466 -26 59 C-26 58.01 -26 57.02 -26 56 C-26.99 56 -27.98 56 -29 56 Z M-103 66 C-103 75.57 -103 85.14 -103 95 C-97.06 91.535 -97.06 91.535 -91 88 C-86.75 87.0625 -86.75 87.0625 -84 87 C-83.67 86.01 -83.34 85.02 -83 84 C-82.01 83.67 -81.02 83.34 -80 83 C-80 81.35 -80 79.7 -80 78 C-80.99 77.67 -81.98 77.34 -83 77 C-83.33 76.01 -83.66 75.02 -84 74 C-85.77636482 73.4111567 -85.77636482 73.4111567 -87.9375 73.1875 C-93 72 -93 72 -103 66 Z M-80 70 C-80 71.65 -80 73.3 -80 75 C-78.68 75 -77.36 75 -76 75 C-76 73.35 -76 71.7 -76 70 C-77.32 70 -78.64 70 -80 70 Z M-17 77 C-17 82.61 -17 88.22 -17 94 C-14.69 94 -12.38 94 -10 94 C-10 88.39 -10 82.78 -10 77 C-12.31 77 -14.62 77 -17 77 Z M-6 81 C-6 81.99 -6 82.98 -6 84 C-2.37 84 1.26 84 5 84 C5 83.01 5 82.02 5 81 C1.37 81 -2.26 81 -6 81 Z M-80 87 C-80 88.32 -80 89.64 -80 91 C-78.68 91 -77.36 91 -76 91 C-76 89.68 -76 88.36 -76 87 C-77.32 87 -78.64 87 -80 87 Z M-6 87 C-6 87.99 -6 88.98 -6 90 C-2.37 90 1.26 90 5 90 C5 89.01 5 88.02 5 87 C1.37 87 -2.26 87 -6 87 Z " fill="#ffff" transform="translate(113,7)"/>
<path d="M0 0 C1.32 0 2.64 0 4 0 C4 1.98 4 3.96 4 6 C5.65 6 7.3 6 9 6 C9 7.65 9 9.3 9 11 C10.98 11 12.96 11 15 11 C15 11.99 15 12.98 15 14 C13.02 14 11.04 14 9 14 C9 15.65 9 17.3 9 19 C10.98 19 12.96 19 15 19 C15 19.99 15 20.98 15 22 C13.02 22 11.04 22 9 22 C9 23.65 9 25.3 9 27 C10.98 27 12.96 27 15 27 C15 27.99 15 28.98 15 30 C13.02 30 11.04 30 9 30 C9 31.65 9 33.3 9 35 C10.98 35 12.96 35 15 35 C15 35.99 15 36.98 15 38 C13.02 38 11.04 38 9 38 C9 39.65 9 41.3 9 43 C10.98 43 12.96 43 15 43 C15 43.99 15 44.98 15 46 C13.02 46 11.04 46 9 46 C9 47.65 9 49.3 9 51 C10.98 51 12.96 51 15 51 C15 51.99 15 52.98 15 54 C13.02 54 11.04 54 9 54 C9 55.98 9 57.96 9 60 C7.35 60 5.7 60 4 60 C4 61.65 4 63.3 4 65 C2.68 65 1.36 65 0 65 C0 63.35 0 61.7 0 60 C-1.65 60 -3.3 60 -5 60 C-5 58.02 -5 56.04 -5 54 C-6.98 54 -8.96 54 -11 54 C-11 53.01 -11 52.02 -11 51 C-9.02 51 -7.04 51 -5 51 C-5 49.35 -5 47.7 -5 46 C-6.98 46 -8.96 46 -11 46 C-11 45.01 -11 44.02 -11 43 C-9.02 43 -7.04 43 -5 43 C-5 41.35 -5 39.7 -5 38 C-6.98 38 -8.96 38 -11 38 C-11 37.01 -11 36.02 -11 35 C-9.02 35 -7.04 35 -5 35 C-5 33.35 -5 31.7 -5 30 C-6.98 30 -8.96 30 -11 30 C-11 29.01 -11 28.02 -11 27 C-9.02 27 -7.04 27 -5 27 C-5 25.35 -5 23.7 -5 22 C-6.98 22 -8.96 22 -11 22 C-11 21.01 -11 20.02 -11 19 C-9.02 19 -7.04 19 -5 19 C-5 17.35 -5 15.7 -5 14 C-6.98 14 -8.96 14 -11 14 C-11 13.01 -11 12.02 -11 11 C-9.02 11 -7.04 11 -5 11 C-5 9.35 -5 7.7 -5 6 C-3.35 6 -1.7 6 0 6 C0 4.02 0 2.04 0 0 Z M-2 9 C-2 24.51 -2 40.02 -2 56 C0.64 56 3.28 56 6 56 C6 40.49 6 24.98 6 9 C3.36 9 0.72 9 -2 9 Z " fill="#ffff" transform="translate(62,41)"/>
</svg>
