<?xml version="1.0" encoding="UTF-8"?>
<!DOCTYPE svg PUBLIC "-//W3C//DTD SVG 1.1//EN" "http://www.w3.org/Graphics/SVG/1.1/DTD/svg11.dtd">
<svg xmlns="http://www.w3.org/2000/svg" version="1.1" width="100px" height="100px" style="shape-rendering:geometricPrecision; text-rendering:geometricPrecision; image-rendering:optimizeQuality; fill-rule:evenodd; clip-rule:evenodd" xmlns:xlink="http://www.w3.org/1999/xlink">
<g><path style="opacity:0.712" fill="#000000" d="M 18.5,12.5 C 19.5,12.5 20.5,12.5 21.5,12.5C 21.5,32.8333 21.5,53.1667 21.5,73.5C 35.5,73.5 49.5,73.5 63.5,73.5C 63.5,71.8333 63.5,70.1667 63.5,68.5C 61.7231,68.7863 60.0564,69.4529 58.5,70.5C 57.3279,70.0814 56.3279,69.4147 55.5,68.5C 54.1255,69.7113 52.6255,70.7113 51,71.5C 49.3333,70.1667 47.6667,70.1667 46,71.5C 44.2173,70.0471 42.2173,69.0471 40,68.5C 38.5531,68.9452 37.2197,69.6119 36,70.5C 32.7242,68.7727 29.2242,68.106 25.5,68.5C 24.1667,60.1667 24.1667,51.8333 25.5,43.5C 28.9059,43.698 31.9059,42.698 34.5,40.5C 37.7108,40.6225 40.8775,40.6225 44,40.5C 45.6768,41.5159 47.3435,42.5159 49,43.5C 50.7297,42.3507 52.3963,42.3507 54,43.5C 54.4997,35.5069 54.6664,27.5069 54.5,19.5C 57.8333,19.5 61.1667,19.5 64.5,19.5C 64.5,20.5 64.5,21.5 64.5,22.5C 62.1667,22.5 59.8333,22.5 57.5,22.5C 57.5,30.5 57.5,38.5 57.5,46.5C 51.3916,46.0893 45.3916,46.7559 39.5,48.5C 35.5966,48.6355 31.9299,47.9689 28.5,46.5C 29.8333,52.8333 29.8333,59.1667 28.5,65.5C 32.392,64.8694 36.2254,64.8694 40,65.5C 45.0133,62.9046 50.0133,62.9046 55,65.5C 57.8179,64.4092 60.6512,64.4092 63.5,65.5C 63.955,63.6334 64.6216,61.8001 65.5,60C 65.4105,46.5036 65.4105,33.0036 65.5,19.5C 66.8333,19.5 68.1667,19.5 69.5,19.5C 69.5895,33.0036 69.5895,46.5036 69.5,60C 71.1689,64.3464 71.8355,68.8464 71.5,73.5C 73.5,73.5 75.5,73.5 77.5,73.5C 77.5,53.1667 77.5,32.8333 77.5,12.5C 78.5,12.5 79.5,12.5 80.5,12.5C 80.3334,33.5026 80.5,54.5026 81,75.5C 82.8333,78.5 84.6667,81.5 86.5,84.5C 85.7579,85.2868 84.9246,85.9535 84,86.5C 81.7098,83.4201 79.5431,80.2534 77.5,77C 58.8333,76.3333 40.1667,76.3333 21.5,77C 19.4569,80.2534 17.2902,83.4201 15,86.5C 14.0754,85.9535 13.2421,85.2868 12.5,84.5C 14.3333,81.5 16.1667,78.5 18,75.5C 18.5,54.5026 18.6666,33.5026 18.5,12.5 Z M 66.5,65.5 C 67.7479,66.3339 68.4146,67.6672 68.5,69.5C 68.1667,70.8333 67.8333,72.1667 67.5,73.5C 66.52,70.9135 66.1866,68.2469 66.5,65.5 Z"/></g>
</svg>
