<?xml version="1.0" encoding="UTF-8"?>
<svg version="1.1" xmlns="http://www.w3.org/2000/svg" width="128" height="128">
<path d="M0 0 C5.28 0 10.56 0 16 0 C16.37125 1.299375 16.7425 2.59875 17.125 3.9375 C17.8820606 6.12961487 17.8820606 6.12961487 19 8 C21.87842219 9.49381107 21.87842219 9.49381107 25 9 C25.66 8.34 26.32 7.68 27 7 C27.66 6.34 28.32 5.68 29 5 C32.08767006 5 34.19119633 5.40589021 36.70703125 7.25390625 C38.92953211 8.82135422 40.28101091 9.6336427 43 10 C46.61648871 8.25889343 49.52355605 6.27879088 52.75390625 3.890625 C56.49592174 1.7111599 58.7421009 1.63488381 63 2 C63.72631836 4.23706055 63.72631836 4.23706055 64 7 C62.55297852 9.12817383 62.55297852 9.12817383 60.37890625 11.20703125 C59.60869141 11.95791016 58.83847656 12.70878906 58.04492188 13.48242188 C57.22572266 14.25134766 56.40652344 15.02027344 55.5625 15.8125 C54.74716797 16.60076172 53.93183594 17.38902344 53.09179688 18.20117188 C51.07395416 20.14821309 49.04348191 22.07994351 47 24 C50.3 24 53.6 24 57 24 C58.0384211 25.71866217 59.05514635 27.45044598 60.0625 29.1875 C60.63097656 30.15042969 61.19945313 31.11335938 61.78515625 32.10546875 C63.14756337 35.35158991 63.15644756 36.72052185 62 40 C61.46375 40.474375 60.9275 40.94875 60.375 41.4375 C58.69068008 43.0298725 58.69068008 43.0298725 58.8125 46 C59.66338909 49.06595627 59.66338909 49.06595627 61.859375 50.0546875 C63.87154967 50.80390147 65.93548281 51.41013795 68 52 C68 57.28 68 62.56 68 68 C66.700625 68.37125 65.40125 68.7425 64.0625 69.125 C61.87038513 69.8820606 61.87038513 69.8820606 60 71 C58.50618893 73.87842219 58.50618893 73.87842219 59 77 C59.66 77.66 60.32 78.32 61 79 C63 81 63 81 63.0625 83.6875 C61.63032717 88.15250942 59.41171389 91.99530904 57 96 C56.22914062 95.97679688 55.45828125 95.95359375 54.6640625 95.9296875 C53.66117187 95.91164063 52.65828125 95.89359375 51.625 95.875 C50.62726563 95.85179688 49.62953125 95.82859375 48.6015625 95.8046875 C45.83737827 95.72783152 45.83737827 95.72783152 44 98 C43.75684344 100.66949409 43.75684344 100.66949409 43.875 103.625 C43.89304687 104.62789063 43.91109375 105.63078125 43.9296875 106.6640625 C43.95289062 107.43492188 43.97609375 108.20578125 44 109 C42.28133783 110.0384211 40.54955402 111.05514635 38.8125 112.0625 C37.84957031 112.63097656 36.88664062 113.19945313 35.89453125 113.78515625 C32.64841009 115.14756337 31.27947815 115.15644756 28 114 C27.525625 113.46375 27.05125 112.9275 26.5625 112.375 C24.9701275 110.69068008 24.9701275 110.69068008 22 110.8125 C18.93404373 111.66338909 18.93404373 111.66338909 17.9453125 113.859375 C17.19609853 115.87154967 16.58986205 117.93548281 16 120 C10.72 120 5.44 120 0 120 C-0.37125 118.700625 -0.7425 117.40125 -1.125 116.0625 C-1.8820606 113.87038513 -1.8820606 113.87038513 -3 112 C-5.87842219 110.50618893 -5.87842219 110.50618893 -9 111 C-9.66 111.66 -10.32 112.32 -11 113 C-11.66 113.66 -12.32 114.32 -13 115 C-16.08767006 115 -18.19119633 114.59410979 -20.70703125 112.74609375 C-22.92953211 111.17864578 -24.28101091 110.3663573 -27 110 C-30.61648871 111.74110657 -33.52355605 113.72120912 -36.75390625 116.109375 C-40.49592174 118.2888401 -42.7421009 118.36511619 -47 118 C-47.72631836 115.76293945 -47.72631836 115.76293945 -48 113 C-46.55297852 110.87182617 -46.55297852 110.87182617 -44.37890625 108.79296875 C-43.60869141 108.04208984 -42.83847656 107.29121094 -42.04492188 106.51757812 C-41.22572266 105.74865234 -40.40652344 104.97972656 -39.5625 104.1875 C-38.74716797 103.39923828 -37.93183594 102.61097656 -37.09179688 101.79882812 C-35.07395416 99.85178691 -33.04348191 97.92005649 -31 96 C-34.3 96 -37.6 96 -41 96 C-42.0384211 94.28133783 -43.05514635 92.54955402 -44.0625 90.8125 C-44.63097656 89.84957031 -45.19945312 88.88664062 -45.78515625 87.89453125 C-47.14756337 84.64841009 -47.15644756 83.27947815 -46 80 C-45.46375 79.525625 -44.9275 79.05125 -44.375 78.5625 C-42.69068008 76.9701275 -42.69068008 76.9701275 -42.8125 74 C-43.66338909 70.93404373 -43.66338909 70.93404373 -45.859375 69.9453125 C-47.87154967 69.19609853 -49.93548281 68.58986205 -52 68 C-52 62.72 -52 57.44 -52 52 C-50.700625 51.62875 -49.40125 51.2575 -48.0625 50.875 C-45.87038513 50.1179394 -45.87038513 50.1179394 -44 49 C-42.50618893 46.12157781 -42.50618893 46.12157781 -43 43 C-43.66 42.34 -44.32 41.68 -45 41 C-47 39 -47 39 -47.0625 36.3125 C-45.63032717 31.84749058 -43.41171389 28.00469096 -41 24 C-40.22914062 24.02320312 -39.45828125 24.04640625 -38.6640625 24.0703125 C-37.15972656 24.09738281 -37.15972656 24.09738281 -35.625 24.125 C-34.62726562 24.14820312 -33.62953125 24.17140625 -32.6015625 24.1953125 C-29.83737827 24.27216848 -29.83737827 24.27216848 -28 22 C-27.75684344 19.33050591 -27.75684344 19.33050591 -27.875 16.375 C-27.89304687 15.37210938 -27.91109375 14.36921875 -27.9296875 13.3359375 C-27.95289062 12.56507812 -27.97609375 11.79421875 -28 11 C-26.28133783 9.9615789 -24.54955402 8.94485365 -22.8125 7.9375 C-21.36810547 7.08478516 -21.36810547 7.08478516 -19.89453125 6.21484375 C-16.64841009 4.85243663 -15.27947815 4.84355244 -12 6 C-11.525625 6.53625 -11.05125 7.0725 -10.5625 7.625 C-8.9701275 9.30931992 -8.9701275 9.30931992 -6 9.1875 C-2.93404373 8.33661091 -2.93404373 8.33661091 -1.9453125 6.140625 C-1.19609853 4.12845033 -0.58986205 2.06451719 0 0 Z M-20 37.2890625 C-25.38783694 44.36059848 -28.76189045 52.72366512 -28.3515625 61.76953125 C-27.03199424 70.14145879 -24.44922518 77.49120326 -19 84 C-14.08064098 79.88380164 -9.47352044 75.59589638 -5 71 C-6.53481294 67.19331705 -8.86522081 65.1037511 -11.9375 62.4375 C-13.62767825 60.9613944 -15.31544395 59.48251853 -17 58 C-17.62003906 57.49597656 -18.24007812 56.99195313 -18.87890625 56.47265625 C-20 55 -20 55 -19.76464844 53.05419922 C-18.42665827 49.45973904 -14.83682459 47.97705656 -11.6875 46.0625 C-10.15059905 45.09966449 -8.61416126 44.13608938 -7.078125 43.171875 C-6.26021484 42.66333984 -5.44230469 42.15480469 -4.59960938 41.63085938 C-0.00762704 38.75008909 4.52352029 35.77579075 9.0625 32.8125 C10.78234963 31.69369914 12.50238426 30.57518258 14.22265625 29.45703125 C15.48178766 28.6380467 16.74090917 27.81904693 18 27 C17.505 26.01 17.505 26.01 17 25 C3.32434247 20.85586135 -10.97195064 26.95617788 -20 37.2890625 Z M32.69311523 37.19335938 C31.8840271 38.01030273 31.8840271 38.01030273 31.05859375 38.84375 C30.47529297 39.43027344 29.89199219 40.01679687 29.29101562 40.62109375 C28.37352539 41.55115234 28.37352539 41.55115234 27.4375 42.5 C26.82197266 43.12003906 26.20644531 43.74007812 25.57226562 44.37890625 C24.04594484 45.91705898 22.5226885 47.45825142 21 49 C22.73209998 52.75460899 24.79998483 54.83963441 27.9375 57.5625 C29.62767825 59.0386056 31.31544395 60.51748147 33 62 C33.93005859 62.75603516 33.93005859 62.75603516 34.87890625 63.52734375 C36 65 36 65 35.76464844 66.94580078 C34.42665827 70.54026096 30.83682459 72.02294344 27.6875 73.9375 C26.15059905 74.90033551 24.61416126 75.86391062 23.078125 76.828125 C22.26021484 77.33666016 21.44230469 77.84519531 20.59960938 78.36914062 C16.00762704 81.24991091 11.47647971 84.22420925 6.9375 87.1875 C5.21765037 88.30630086 3.49761574 89.42481742 1.77734375 90.54296875 C0.51821234 91.3619533 -0.74090917 92.18095307 -2 93 C-1.67 93.66 -1.34 94.32 -1 95 C7.9788531 97.72086457 16.57596426 95.48331294 25 92 C33.79300055 87.00005851 40.05520478 79.05414953 42.9375 69.375 C45.21330214 59.19078542 43.83569608 49.82397094 38.65625 40.609375 C37.22882281 38.49948472 37.22882281 38.49948472 35 36 C33.82811526 35.88761578 33.82811526 35.88761578 32.69311523 37.19335938 Z " fill="#222E3C" transform="translate(56,4)"/>
<path d="M0 0 C0.99 0.495 0.99 0.495 2 1 C1.49665634 1.49001999 0.99331268 1.98003998 0.47471619 2.48490906 C-4.26442466 7.10386509 -8.98904995 11.73712158 -13.6978693 16.38699627 C-16.11931309 18.77711687 -18.54602183 21.16133527 -20.9855957 23.53295898 C-23.78950205 26.25924867 -26.56904918 29.00963888 -29.34765625 31.76171875 C-30.22776871 32.61086349 -31.10788116 33.46000824 -32.0146637 34.33488464 C-32.81556931 35.13533707 -33.61647491 35.93578949 -34.44165039 36.76049805 C-35.15446671 37.45999069 -35.86728302 38.15948334 -36.60169983 38.88017273 C-38.2759139 40.94906291 -38.2759139 40.94906291 -37.80407715 43.66064453 C-36.91842204 46.23734021 -36.08334816 47.32442056 -34.05859375 49.11328125 C-33.47529297 49.63857422 -32.89199219 50.16386719 -32.29101562 50.70507812 C-31.37352539 51.50075195 -31.37352539 51.50075195 -30.4375 52.3125 C-29.82197266 52.86228516 -29.20644531 53.41207031 -28.57226562 53.97851562 C-27.0571779 55.32917522 -25.52976006 56.66598114 -24 58 C-25.42086775 61.48414165 -26.94769296 62.92907559 -30.12890625 64.890625 C-30.98621338 65.426875 -31.84352051 65.963125 -32.72680664 66.515625 C-34.13047485 67.37414062 -34.13047485 67.37414062 -35.5625 68.25 C-37.57325515 69.50466603 -39.58365847 70.75989605 -41.59375 72.015625 C-43.1715625 72.99499023 -43.1715625 72.99499023 -44.78125 73.99414062 C-50.06776137 77.28858673 -55.31606569 80.64221675 -60.5625 84 C-61.59568359 84.66032227 -62.62886719 85.32064453 -63.69335938 86.00097656 C-73.88535512 92.53291623 -83.96002093 99.23730321 -94 106 C-94.66 105.67 -95.32 105.34 -96 105 C-95.49665634 104.50998001 -94.99331268 104.01996002 -94.47471619 103.51509094 C-89.73557534 98.89613491 -85.01095005 94.26287842 -80.3021307 89.61300373 C-77.88068691 87.22288313 -75.45397817 84.83866473 -73.0144043 82.46704102 C-70.21049795 79.74075133 -67.43095082 76.99036112 -64.65234375 74.23828125 C-63.33217506 72.96456413 -63.33217506 72.96456413 -61.9853363 71.66511536 C-61.18443069 70.86466293 -60.38352509 70.06421051 -59.55834961 69.23950195 C-58.84553329 68.54000931 -58.13271698 67.84051666 -57.39830017 67.11982727 C-55.7240861 65.05093709 -55.7240861 65.05093709 -56.19592285 62.33935547 C-57.08157796 59.76265979 -57.91665184 58.67557944 -59.94140625 56.88671875 C-60.52470703 56.36142578 -61.10800781 55.83613281 -61.70898438 55.29492188 C-62.32064453 54.76447266 -62.93230469 54.23402344 -63.5625 53.6875 C-64.17802734 53.13771484 -64.79355469 52.58792969 -65.42773438 52.02148438 C-66.9428221 50.67082478 -68.47023994 49.33401886 -70 48 C-68.62226181 44.6956257 -67.29162858 43.22261373 -64.24609375 41.37109375 C-63.48345215 40.89961914 -62.72081055 40.42814453 -61.93505859 39.94238281 C-61.11086426 39.44577148 -60.28666992 38.94916016 -59.4375 38.4375 C-57.68825098 37.35896623 -55.93956292 36.27952217 -54.19140625 35.19921875 C-53.31242676 34.65958496 -52.43344727 34.11995117 -51.52783203 33.56396484 C-47.9420309 31.34543654 -44.40647646 29.05366687 -40.875 26.75 C-35.80608487 23.45369931 -30.72313951 20.18065323 -25.625 16.9296875 C-25.0687796 16.57483276 -24.5125592 16.21997803 -23.93948364 15.85437012 C-21.17444363 14.09046271 -18.40826093 12.32840053 -15.64013672 10.56933594 C-10.32050737 7.1766937 -5.08741788 3.73269471 0 0 Z " fill="#FABB31" transform="translate(111,11)"/>
<path d="M0 0 C3.3 0 6.6 0 10 0 C10.28875 1.27875 10.5775 2.5575 10.875 3.875 C11.93745574 6.75954167 12.48721443 7.74930483 15.28515625 9.1171875 C17.96080967 9.75556137 20.25045297 10.12250457 23 10 C25.33454661 8.16641665 25.33454661 8.16641665 27 6 C30.93148945 6.09828724 32.98434891 7.64242531 36 10 C34.39612733 11.1254191 32.79189084 12.25031972 31.1875 13.375 C30.29417969 14.00148438 29.40085937 14.62796875 28.48046875 15.2734375 C23.11206112 19.01018737 23.11206112 19.01018737 19.5625 18.6875 C17.75919977 18.33949469 15.95196653 17.98612827 14.1875 17.4765625 C2.63645166 14.96008411 -7.86487677 17.70308307 -17.75 23.6875 C-26.09694895 29.6304082 -32.03145778 38.91586393 -34 49 C-34.85101108 61.0778111 -32.85565786 69.79300524 -26.20703125 79.87109375 C-25 82 -25 82 -25 85 C-27.5 87.1875 -27.5 87.1875 -30 89 C-30.495 88.505 -30.495 88.505 -31 88 C-32.60530706 88.08479764 -34.20941779 88.19279694 -35.8125 88.3125 C-38.5390625 88.34375 -38.5390625 88.34375 -41 88 C-43.6875 85.3125 -43.6875 85.3125 -45 82 C-44.9375 79.3125 -44.9375 79.3125 -44 77 C-43.47921875 76.56042969 -42.9584375 76.12085937 -42.421875 75.66796875 C-40.76377798 74.06295711 -40.76377798 74.06295711 -40.86328125 71.625 C-41.33644342 68.86008714 -41.81157651 66.54846048 -43 64 C-45.6876305 62.15736489 -47.75280578 61.7332374 -51 61 C-51 57.7 -51 54.4 -51 51 C-49.72125 50.71125 -48.4425 50.4225 -47.125 50.125 C-44.24045833 49.06254426 -43.25069517 48.51278557 -41.8828125 45.71484375 C-41.24443863 43.03919033 -40.87749543 40.74954703 -41 38 C-42.83358335 35.66545339 -42.83358335 35.66545339 -45 34 C-44.9375 31.5625 -44.9375 31.5625 -44 29 C-43.690625 28.071875 -43.38125 27.14375 -43.0625 26.1875 C-41 24 -41 24 -38.71875 23.828125 C-36.94136345 23.90131151 -35.16401942 23.97553786 -33.38671875 24.05078125 C-30.85867706 24.17411163 -30.85867706 24.17411163 -28.375 22.625 C-26.80994357 19.637165 -26.94933841 18.30829324 -27.125 15 C-27.23828125 12.35546875 -27.23828125 12.35546875 -27 10 C-24.3125 7.3125 -24.3125 7.3125 -21 6 C-18.3125 6.0625 -18.3125 6.0625 -16 7 C-15.56042969 7.52078125 -15.12085938 8.0415625 -14.66796875 8.578125 C-13.06295711 10.23622202 -13.06295711 10.23622202 -10.625 10.13671875 C-7.86008714 9.66355658 -5.54846048 9.18842349 -3 8 C-1.15736489 5.3123695 -0.7332374 3.24719422 0 0 Z " fill="#7B0102" transform="translate(59,8)"/>
<path d="M0 0 C0.99 0.495 0.99 0.495 2 1 C3.62626103 0.91783699 5.25130642 0.81036109 6.875 0.6875 C9.57421875 0.65625 9.57421875 0.65625 12 1 C14.6875 3.6875 14.6875 3.6875 16 7 C15.9375 9.6875 15.9375 9.6875 15 12 C14.47921875 12.43957031 13.9584375 12.87914062 13.421875 13.33203125 C11.76377798 14.93704289 11.76377798 14.93704289 11.86328125 17.375 C12.33644342 20.13991286 12.81157651 22.45153952 14 25 C16.6876305 26.84263511 18.75280578 27.2667626 22 28 C22 31.3 22 34.6 22 38 C20.081875 38.433125 20.081875 38.433125 18.125 38.875 C15.24045833 39.93745574 14.25069517 40.48721443 12.8828125 43.28515625 C12.24443863 45.96080967 11.87749543 48.25045297 12 51 C13.83358335 53.33454661 13.83358335 53.33454661 16 55 C15.9375 57.4375 15.9375 57.4375 15 60 C14.5359375 61.3921875 14.5359375 61.3921875 14.0625 62.8125 C12 65 12 65 9.71875 65.171875 C7.94136345 65.09868849 6.16401942 65.02446214 4.38671875 64.94921875 C1.85867706 64.82588837 1.85867706 64.82588837 -0.625 66.375 C-2.19005643 69.362835 -2.05066159 70.69170676 -1.875 74 C-1.76171875 76.64453125 -1.76171875 76.64453125 -2 79 C-4.6875 81.6875 -4.6875 81.6875 -8 83 C-10.6875 82.9375 -10.6875 82.9375 -13 82 C-13.43957031 81.47921875 -13.87914062 80.9584375 -14.33203125 80.421875 C-15.93704289 78.76377798 -15.93704289 78.76377798 -18.375 78.86328125 C-21.13991286 79.33644342 -23.45153952 79.81157651 -26 81 C-27.84263511 83.6876305 -28.2667626 85.75280578 -29 89 C-32.3 89 -35.6 89 -39 89 C-39.28875 87.72125 -39.5775 86.4425 -39.875 85.125 C-40.93745574 82.24045833 -41.48721443 81.25069517 -44.28515625 79.8828125 C-46.96080967 79.24443863 -49.25045297 78.87749543 -52 79 C-54.33454661 80.83358335 -54.33454661 80.83358335 -56 83 C-59.93148945 82.90171276 -61.98434891 81.35757469 -65 79 C-62.99502872 77.45330787 -60.97540286 75.93970003 -58.9375 74.4375 C-58.37611328 73.99986328 -57.81472656 73.56222656 -57.23632812 73.11132812 C-54.02307389 70.77942363 -52.32465369 69.98588462 -48.31640625 70.16015625 C-46.53065813 70.6123775 -44.74555467 71.06739627 -42.96484375 71.5390625 C-31.74120727 74.17204283 -21.03569706 71.25733621 -11.3984375 65.42578125 C-2.75708926 59.22655317 2.62225126 50.32584144 5 40 C6.53605358 26.25388783 2.36955862 16.32455509 -5 5 C-3.35 3.35 -1.7 1.7 0 0 Z " fill="#7C0102" transform="translate(98,31)"/>
</svg>
