<?xml version="1.0" encoding="UTF-8"?>
<svg version="1.1" xmlns="http://www.w3.org/2000/svg" width="100" height="100">
<path d="M0 0 C10 0 10 0 12.375 0.5625 C15.01095061 1.0018251 16.49887005 0.83370998 19 0 C19.12375 1.175625 19.12375 1.175625 19.25 2.375 C19.72032588 5.08342864 19.72032588 5.08342864 21.75 6.1875 C22.4925 6.455625 23.235 6.72375 24 7 C25.36125 7.556875 25.36125 7.556875 26.75 8.125 C27.86375 8.558125 27.86375 8.558125 29 9 C29 10.65 29 12.3 29 14 C29.59167969 13.94199219 30.18335938 13.88398438 30.79296875 13.82421875 C33.27833265 13.6823138 35.53320718 13.6434058 38 14 C38.804375 14.825 39.60875 15.65 40.4375 16.5 C43.36345501 19.35459026 44.18451556 19.45441626 48.125 19.625 C50.73362036 19.59068661 50.73362036 19.59068661 53 19 C53.495 18.175 53.99 17.35 54.5 16.5 C54.995 15.675 55.49 14.85 56 14 C59.43160507 13.23611531 62.568325 13.23740556 66 14 C67.03013277 15.64821244 68.03114628 17.31503702 69 19 C71.05400212 19.20919555 71.05400212 19.20919555 73.375 19 C77.03649114 18.81483487 77.79800585 18.87220778 81.0625 20.9375 C83.43635512 24.6897226 83.12452099 26.72294189 82.84375 31.01171875 C82.8953125 31.66785156 82.946875 32.32398438 83 33 C83.825 33.474375 84.65 33.94875 85.5 34.4375 C86.325 34.953125 87.15 35.46875 88 36 C88.76271632 39.43222345 88.76271632 42.56777655 88 46 C86.35178756 47.03013277 84.68496298 48.03114628 83 49 C82.79080445 51.05400212 82.79080445 51.05400212 83 53.375 C83.18516513 57.03649114 83.12779222 57.79800585 81.0625 61.0625 C77.3102774 63.43635512 75.27705811 63.12452099 70.98828125 62.84375 C70.33214844 62.8953125 69.67601563 62.946875 69 63 C68.525625 63.825 68.05125 64.65 67.5625 65.5 C67.046875 66.325 66.53125 67.15 66 68 C62.56777655 68.76271632 59.43222345 68.76271632 56 68 C54.96986723 66.35178756 53.96885372 64.68496298 53 63 C49.96486127 62.53431987 47.04830387 62.71242416 44 63 C44 65.31 44 67.62 44 70 C45.32 70.66 46.64 71.32 48 72 C48 72.66 48 73.32 48 74 C48.69867188 73.97679688 49.39734375 73.95359375 50.1171875 73.9296875 C51.02726562 73.91164063 51.93734375 73.89359375 52.875 73.875 C53.77992187 73.85179688 54.68484375 73.82859375 55.6171875 73.8046875 C58 74 58 74 60 76 C60.34375 78.05859375 60.34375 78.05859375 60.5 80.4375 C60.73068183 83.93809684 60.96150563 84.94225845 63 88 C62.6758631 91.32240324 62.39223697 92.60776303 60 95 C57.0625 95.4375 57.0625 95.4375 54 95 C52.125 92.5 52.125 92.5 51 90 C51.474375 89.29875 51.94875 88.5975 52.4375 87.875 C54.08739857 84.83918663 54.60368464 82.40831214 55 79 C52.69 79 50.38 79 48 79 C47.71125 79.639375 47.4225 80.27875 47.125 80.9375 C46 83 46 83 44 84 C44.12375 85.051875 44.2475 86.10375 44.375 87.1875 C44 91 44 91 41.4375 94 C37.32784467 96.39107219 35.51618359 96.17420773 31 95 C30.505 96.98 30.505 96.98 30 99 C23.375 100.125 23.375 100.125 20 99 C18.8125 96.9375 18.8125 96.9375 18 95 C17.29875 95.268125 16.5975 95.53625 15.875 95.8125 C13 96 13 96 9.6875 94 C7.01705846 91.57543031 7.00663428 91.06744849 6.625 87.1875 C6.74875 86.135625 6.8725 85.08375 7 84 C5.68 83.34 4.36 82.68 3 82 C3 81.01 3 80.02 3 79 C2.21753906 79.01160156 1.43507813 79.02320312 0.62890625 79.03515625 C-0.38300781 79.04417969 -1.39492187 79.05320312 -2.4375 79.0625 C-3.44683594 79.07410156 -4.45617187 79.08570312 -5.49609375 79.09765625 C-8 79 -8 79 -9 78 C-9.23693296 74.84841549 -9.39590076 71.70455088 -9.51757812 68.546875 C-9.7065998 64.88056774 -9.91643958 63.12534063 -12 60 C-11.8125 56.9375 -11.8125 56.9375 -11 54 C-8 52 -8 52 -5.4375 52.25 C-3 53 -3 53 -1 55 C-0.75 58 -0.75 58 -1 61 C-1.66 61.66 -2.32 62.32 -3 63 C-3.46290221 65.66242821 -3.46290221 65.66242821 -3.625 68.625 C-3.69976562 69.62789063 -3.77453125 70.63078125 -3.8515625 71.6640625 C-3.90054687 72.43492188 -3.94953125 73.20578125 -4 74 C-1.69 74 0.62 74 3 74 C3.33 73.01 3.66 72.02 4 71 C4.99 71 5.98 71 7 71 C7.52195759 67.86825447 7.67084685 65.11746479 7 62 C5.21989819 60.14510199 5.21989819 60.14510199 3 58.5 C0.67315565 56.50088021 -0.7997552 55.06109099 -1.37890625 51.9921875 C-1.71495694 46.97727717 -1.40928857 42.00241581 -1 37 C-1.53625 36.896875 -2.0725 36.79375 -2.625 36.6875 C-5 36 -5 36 -11 33 C-11 25.08 -11 17.16 -11 9 C-9.35 9 -7.7 9 -6 9 C-5.67 8.01 -5.34 7.02 -5 6 C-2.9375 5.3125 -2.9375 5.3125 -1 5 C-0.67 3.35 -0.34 1.7 0 0 Z M-1 10 C-1 17.59 -1 25.18 -1 33 C5.93 33 12.86 33 20 33 C20 25.41 20 17.82 20 10 C13.07 10 6.14 10 -1 10 Z M29 19 C29 20.32 29 21.64 29 23 C27.68 23.33 26.36 23.66 25 24 C26.32 24 27.64 24 29 24 C29 27.3 29 30.6 29 34 C28.2575 34.12375 27.515 34.2475 26.75 34.375 C24.19858515 34.95486701 22.2732427 35.73708739 20 37 C20 38.65 20 40.3 20 42 C18.68 42.33 17.36 42.66 16 43 C16.69867187 43.37511719 17.39734375 43.75023438 18.1171875 44.13671875 C19.48230469 44.90435547 19.48230469 44.90435547 20.875 45.6875 C22.23238281 46.43580078 22.23238281 46.43580078 23.6171875 47.19921875 C26.36511072 49.27592793 26.90766233 50.80252614 28 54 C28.66 54.33 29.32 54.66 30 55 C31.125 57.0625 31.125 57.0625 32 59 C34.64 59 37.28 59 40 59 C40.2850799 55.62338691 40.46879594 52.36430026 40 49 C39.175 48.525625 38.35 48.05125 37.5 47.5625 C36.675 47.046875 35.85 46.53125 35 46 C34.52986824 42.30531745 34.71684803 38.70614466 35 35 C36.65 34.67 38.3 34.34 40 34 C40.62432159 26.87680961 40.62432159 26.87680961 38.4375 20.3125 C35.177046 18.55687092 32.64354222 18.71972752 29 19 Z M59 19 C58.67 20.32 58.34 21.64 58 23 C49.96428571 25.27678571 49.96428571 25.27678571 46 24 C44.87483915 25.83284443 44.87483915 25.83284443 44 28 C44.33 28.99 44.66 29.98 45 31 C44.40206327 33.35188447 43.74118205 35.68925595 43 38 C41.68 38.33 40.36 38.66 39 39 C39.33 40.65 39.66 42.3 40 44 C40.99 44 41.98 44 43 44 C43.33872513 45.41538717 43.67074624 46.83237963 44 48.25 C44.185625 49.03890625 44.37125 49.8278125 44.5625 50.640625 C45 53 45 53 45 57 C48 58.33333333 48 58.33333333 51 57 C52.34977849 57.63270867 53.68352881 58.30062468 55 59 C55.99 59 56.98 59 58 59 C58.33 60.32 58.66 61.64 59 63 C62.83551785 62.48168678 64.36601932 61.74372987 67 59 C69.72622646 57.60193515 71.26186748 56.88030284 74.3125 57.375 C74.869375 57.58125 75.42625 57.7875 76 58 C77.58487964 55.35853394 78.04007026 53.62601089 78.375 50.5 C79.09311989 46.47852864 80.22342543 45.77657457 83 43 C83.08024658 40.40110217 83.08024658 40.40110217 82 38 C81.505 37.54625 81.01 37.0925 80.5 36.625 C78.18512772 34.1172217 78.407043 31.31449301 78 28 C77.04415562 25.66411677 77.04415562 25.66411677 76 24 C75.29875 24.226875 74.5975 24.45375 73.875 24.6875 C70.05649415 25.10255498 68.22028067 24.0037302 65 22 C64.34 21.01 63.68 20.02 63 19 C61.68 19 60.36 19 59 19 Z M14 37 C15 41 15 41 15 41 Z M9 37 C9 38.65 9 40.3 9 42 C7.35 41.67 5.7 41.34 4 41 C3.24594649 48.23951128 3.24594649 48.23951128 5.01953125 55.1328125 C7.27799672 57.70858304 8.98183042 58.85099957 12.40234375 59.3515625 C14.63856729 59.37275893 16.78105972 59.26627283 19 59 C19.28875 58.360625 19.5775 57.72125 19.875 57.0625 C21 55 21 55 23 54 C21.73809862 50.21429586 20.45144185 49.78168429 17.0625 47.8125 C15.71865234 47.01779297 15.71865234 47.01779297 14.34765625 46.20703125 C12.14351611 44.8475841 12.14351611 44.8475841 10 45 C10 42.36 10 39.72 10 37 C9.67 37 9.34 37 9 37 Z M-7 57 C-6 59 -6 59 -6 59 Z M24 59 C23.5875 59.474375 23.175 59.94875 22.75 60.4375 C20.13088064 62.77599943 17.41273208 62.62770196 14 63 C13.01 63.495 13.01 63.495 12 64 C11.71073053 66.02488628 11.42727846 68.05244016 11.24609375 70.08984375 C11 72 11 72 10 74 C9.01 74.33 8.02 74.66 7 75 C7 75.99 7 76.98 7 78 C7.61875 78.53625 8.2375 79.0725 8.875 79.625 C11.90693889 83.01363759 12.28552182 86.60031858 13 91 C13.721875 90.773125 14.44375 90.54625 15.1875 90.3125 C18.79052197 89.91216423 20.14779845 90.86084883 23 93 C23.33 93.66 23.66 94.32 24 95 C24.99 95 25.98 95 27 95 C27 94.01 27 93.02 27 92 C31 91 35 90 39 89 C39.33 85.7 39.66 82.4 40 79 C41.32 78.67 42.64 78.34 44 78 C44 77.01 44 76.02 44 75 C43.01 74.67 42.02 74.34 41 74 C38.71658893 70.75515269 38.82384543 67.87540045 39 64 C36.04494328 62.90602769 36.04494328 62.90602769 33 62.625 C29.78252188 61.95469206 29.1228674 61.32504524 27 59 C26.01 59 25.02 59 24 59 Z M40 59 C40.99 59.99 41.98 60.98 43 62 C42.67 61.01 42.34 60.02 42 59 C41.34 59 40.68 59 40 59 Z M57 89 C58 91 58 91 58 91 Z " fill="#000000" transform="translate(12,0)"/>
<path d="M0 0 C5.06829693 1.92216023 8.98970492 5.0720931 11.37109375 9.984375 C12.88433009 14.83425046 12.96213782 19.518025 11.1171875 24.27734375 C8.45418103 29.01255724 5.25191628 32.3613207 0 34 C-5.25996429 34.90244485 -9.65707021 34.59178638 -14.375 32 C-18.42298515 29.09102282 -20.59949953 25.76522486 -22 21 C-22.86785495 15.68314149 -22.01943442 11.48045108 -19 7 C-12.94902226 1.01905673 -8.62247057 -1.09671775 0 0 Z M-13.5625 8.375 C-16.89297024 11.96166026 -17.32769932 13.97359104 -17.30078125 18.890625 C-16.80935205 22.33701162 -15.15007215 24.31240981 -13 27 C-11.25372522 24.38058783 -10.61277612 22.96175123 -10 20 C-11.32 19.67 -12.64 19.34 -14 19 C-13.53125935 16.07037094 -12.42749647 13.89693749 -10.9375 11.375 C-8.83404416 8.35951522 -8.83404416 8.35951522 -9 6 C-11.3378326 5.77341178 -11.3378326 5.77341178 -13.5625 8.375 Z M2 7 C1.67 7.99 1.34 8.98 1 10 C2.32 10.33 3.64 10.66 5 11 C3.5166382 15.8253938 0.79752059 18.705867 -2.625 22.25 C-6.13433832 25.31251221 -6.13433832 25.31251221 -8 29 C-1.79455371 29.56890395 -1.79455371 29.56890395 3.4375 26.625 C7.35157695 22.61545776 7.38292536 19.9257104 7.3671875 14.48828125 C6.79060974 10.58104688 5.0892275 9.31692063 2 7 Z M-7 12 C-7.33 12.99 -7.66 13.98 -8 15 C-7.34 15 -6.68 15 -6 15 C-6.33 14.01 -6.66 13.02 -7 12 Z M-6 15 C-5.01 16.485 -5.01 16.485 -4 18 C-3.34 17.01 -2.68 16.02 -2 15 C-3.32 15 -4.64 15 -6 15 Z " fill="#000000" transform="translate(78,24)"/>
<path d="M0 0 C4.33729795 2.25205855 7.13397371 4.4386024 9 9 C9.52774616 13.74971544 9.47536881 15.99221812 7.4375 20.3125 C4.46062269 23.59469806 2.25249171 24.77470578 -2 26 C-5.92325215 25.93235772 -8.31319333 25.37462182 -11.75 23.5 C-14.87546051 20.0272661 -16.37334617 16.63723834 -17 12 C-15.61191741 6.70793513 -13.52096126 4.01397417 -9 1 C-5.89046621 -0.5547669 -3.43733239 -0.28644437 0 0 Z M-11 8 C-11.33145271 10.75486103 -11.18316636 13.20671304 -11 16 C-8.64214682 15.10664203 -8.64214682 15.10664203 -7.875 11.9375 C-7.58625 10.968125 -7.2975 9.99875 -7 9 C-4.6875 8.3125 -4.6875 8.3125 -2 8 C-0.1875 9.0625 -0.1875 9.0625 1 11 C1.1875 14.1875 1.1875 14.1875 1 17 C-0.134375 17.12375 -1.26875 17.2475 -2.4375 17.375 C-4.2009375 17.684375 -4.2009375 17.684375 -6 18 C-6.33 18.66 -6.66 19.32 -7 20 C-3.67707176 21.04434887 -2.43241099 21.2162055 0.75 19.625 C2.86398896 18.18908852 2.86398896 18.18908852 4 17 C4.54152067 11.44201968 4.54152067 11.44201968 2.4375 6.5 C-2.04615884 3.74082533 -7.60659162 3.65643728 -11 8 Z " fill="#000000" transform="translate(41,64)"/>
<path d="M0 0 C0.69802734 -0.00386719 1.39605469 -0.00773438 2.11523438 -0.01171875 C7.31086006 -0.00163994 7.31086006 -0.00163994 8.4375 1.125 C8.52401611 2.54070123 8.54454904 3.960595 8.53515625 5.37890625 C8.53193359 6.23291016 8.52871094 7.08691406 8.52539062 7.96679688 C8.51701172 8.86462891 8.50863281 9.76246094 8.5 10.6875 C8.49548828 11.58919922 8.49097656 12.49089844 8.48632812 13.41992188 C8.47450225 15.65501314 8.4580222 17.88997437 8.4375 20.125 C5.62493719 20.15184312 2.81262759 20.17176188 0 20.1875 C-0.80244141 20.19587891 -1.60488281 20.20425781 -2.43164062 20.21289062 C-4.47545221 20.2215143 -6.51933902 20.1772815 -8.5625 20.125 C-9.5625 19.125 -9.5625 19.125 -9.67602539 17.35913086 C-9.67078857 16.61026611 -9.66555176 15.86140137 -9.66015625 15.08984375 C-9.65693359 14.28095703 -9.65371094 13.47207031 -9.65039062 12.63867188 C-9.64201172 11.78853516 -9.63363281 10.93839844 -9.625 10.0625 C-9.62048828 9.20849609 -9.61597656 8.35449219 -9.61132812 7.47460938 C-9.59950373 5.35804337 -9.58156769 3.24151315 -9.5625 1.125 C-6.51267742 -0.39991129 -3.34127461 -0.01861434 0 0 Z M-4.5625 5.125 C-4.5625 8.755 -4.5625 12.385 -4.5625 16.125 C-1.5925 16.125 1.3775 16.125 4.4375 16.125 C4.4375 12.495 4.4375 8.865 4.4375 5.125 C1.4675 5.125 -1.5025 5.125 -4.5625 5.125 Z " fill="#000000" transform="translate(21.5625,10.875)"/>
</svg>
