<?xml version="1.0" encoding="UTF-8"?>
<!DOCTYPE svg PUBLIC "-//W3C//DTD SVG 1.1//EN" "http://www.w3.org/Graphics/SVG/1.1/DTD/svg11.dtd">
<svg xmlns="http://www.w3.org/2000/svg" version="1.1" width="100px" height="100px" style="shape-rendering:geometricPrecision; text-rendering:geometricPrecision; image-rendering:optimizeQuality; fill-rule:evenodd; clip-rule:evenodd" xmlns:xlink="http://www.w3.org/1999/xlink">
<g><path style="opacity:0.782" fill="#000000" d="M 8.5,-0.5 C 35.8333,-0.5 63.1667,-0.5 90.5,-0.5C 95.1667,0.833333 98.1667,3.83333 99.5,8.5C 99.5,35.8333 99.5,63.1667 99.5,90.5C 98.1667,95.1667 95.1667,98.1667 90.5,99.5C 63.1667,99.5 35.8333,99.5 8.5,99.5C 4.25752,98.2589 1.25752,95.5922 -0.5,91.5C -0.5,63.5 -0.5,35.5 -0.5,7.5C 1.25752,3.40775 4.25752,0.741084 8.5,-0.5 Z M 8.5,5.5 C 35.8354,5.33336 63.1687,5.50002 90.5,6C 91.3333,6.83333 92.1667,7.66667 93,8.5C 93.499,12.8206 93.6657,17.1539 93.5,21.5C 64.1667,21.5 34.8333,21.5 5.5,21.5C 5.33432,17.1539 5.50098,12.8206 6,8.5C 7.04499,7.62656 7.87833,6.62656 8.5,5.5 Z M 5.5,27.5 C 34.8333,27.5 64.1667,27.5 93.5,27.5C 93.6666,48.5026 93.5,69.5026 93,90.5C 92.1667,91.3333 91.3333,92.1667 90.5,93C 63.1667,93.6667 35.8333,93.6667 8.5,93C 7.66667,92.1667 6.83333,91.3333 6,90.5C 5.50004,69.5026 5.33338,48.5026 5.5,27.5 Z"/></g>
<g><path style="opacity:0.657" fill="#000000" d="M 12.5,10.5 C 14.5273,10.3379 16.5273,10.5045 18.5,11C 19.5536,12.3876 19.7203,13.8876 19,15.5C 16.5991,16.6023 14.0991,16.769 11.5,16C 10.2427,13.9235 10.576,12.0902 12.5,10.5 Z"/></g>
<g><path style="opacity:0.701" fill="#000000" d="M 24.5,10.5 C 28.1693,9.69713 30.836,10.8638 32.5,14C 30.3156,16.3679 27.6489,17.0346 24.5,16C 23.2475,14.1722 23.2475,12.3388 24.5,10.5 Z"/></g>
<g><path style="opacity:0.782" fill="#000000" d="M 53.5,40.5 C 55.1667,40.5 56.8333,40.5 58.5,40.5C 55.1857,53.7764 50.8523,66.7764 45.5,79.5C 40.9155,81.0285 39.4155,79.3618 41,74.5C 45.2721,63.1815 49.4388,51.8482 53.5,40.5 Z"/></g>
<g><path style="opacity:0.761" fill="#000000" d="M 63.5,48.5 C 68.5078,51.5078 72.5078,55.5078 75.5,60.5C 72.7773,65.5559 68.7773,69.2226 63.5,71.5C 60.9185,71.2534 60.0851,69.92 61,67.5C 63.5,65 66,62.5 68.5,60C 64.9738,57.9739 62.3071,55.1405 60.5,51.5C 61.3398,50.265 62.3398,49.265 63.5,48.5 Z"/></g>
<g><path style="opacity:0.751" fill="#000000" d="M 32.5,49.5 C 34.1992,49.3398 35.8659,49.5065 37.5,50C 38.0219,50.5613 38.3552,51.228 38.5,52C 36.5125,55.3208 33.8458,57.9875 30.5,60C 33,62.5 35.5,65 38,67.5C 38.9149,69.92 38.0815,71.2534 35.5,71.5C 30.2227,69.2226 26.2227,65.5559 23.5,60.5C 26.1133,56.5498 29.1133,52.8832 32.5,49.5 Z"/></g>
</svg>
